<svg width="36" height="40" viewBox="0 0 36 40" fill="none" xmlns="http://www.w3.org/2000/svg">
<path fill-rule="evenodd" clip-rule="evenodd" d="M20.8884 0.78125H1.28801C0.897617 0.78125 0.57918 1.09969 0.579102 1.49016V34.9499C0.579102 35.3403 0.897617 35.6587 1.28801 35.6587H20.087C19.5573 34.5226 19.2609 33.2559 19.2609 31.9198C19.2609 27.0263 23.2286 23.0586 28.1221 23.0585V8.01492H22.8054C21.7477 8.01492 20.8884 7.15555 20.8884 6.09797V0.78125ZM7.25762 25.7728H17.2543C17.4404 25.7756 17.6181 25.8515 17.7488 25.9841C17.8795 26.1168 17.9527 26.2955 17.9527 26.4817C17.9527 26.6679 17.8795 26.8467 17.7488 26.9793C17.6181 27.112 17.4404 27.1879 17.2543 27.1906H7.25762C7.07143 27.1879 6.8938 27.112 6.76311 26.9793C6.63242 26.8467 6.55916 26.6679 6.55916 26.4817C6.55916 26.2955 6.63242 26.1168 6.76311 25.9841C6.8938 25.8515 7.07143 25.7756 7.25762 25.7728ZM7.25762 30.0874H17.2543C17.4404 30.0902 17.6181 30.1661 17.7488 30.2987C17.8795 30.4314 17.9527 30.6101 17.9527 30.7963C17.9527 30.9825 17.8795 31.1613 17.7488 31.2939C17.6181 31.4266 17.4404 31.5025 17.2543 31.5052H7.25762C7.07143 31.5025 6.8938 31.4266 6.76311 31.2939C6.63242 31.1613 6.55916 30.9825 6.55916 30.7963C6.55916 30.6101 6.63242 30.4314 6.76311 30.2987C6.8938 30.1661 7.07143 30.0902 7.25762 30.0874ZM7.25762 21.4583H21.4437C21.6299 21.4611 21.8075 21.537 21.9382 21.6696C22.0689 21.8023 22.1421 21.981 22.1421 22.1672C22.1421 22.3534 22.0689 22.5322 21.9382 22.6648C21.8075 22.7974 21.6298 22.8733 21.4436 22.8761H7.25762C7.07143 22.8733 6.8938 22.7974 6.76311 22.6648C6.63242 22.5321 6.55916 22.3534 6.55916 22.1672C6.55916 21.981 6.63242 21.8022 6.76311 21.6696C6.8938 21.5369 7.07143 21.461 7.25762 21.4583ZM12.4729 6.85038C12.5393 6.78396 12.6294 6.74657 12.7233 6.74641L15.978 6.74648C16.072 6.74665 16.162 6.78404 16.2284 6.85046C16.2949 6.91688 16.3323 7.00692 16.3325 7.10086V9.72687H18.9586C19.0525 9.72706 19.1425 9.76447 19.209 9.8309C19.2754 9.89734 19.3128 9.98739 19.3129 10.0813V13.336C19.3127 13.4299 19.2753 13.52 19.2089 13.5864C19.1425 13.6528 19.0525 13.6902 18.9586 13.6904H16.3325V16.3165C16.3323 16.4104 16.2949 16.5005 16.2284 16.5669C16.162 16.6333 16.072 16.6708 15.978 16.6709H12.7233C12.6294 16.6708 12.5393 16.6333 12.4729 16.5669C12.4065 16.5005 12.3691 16.4104 12.3689 16.3165V13.6904H9.74285C9.64891 13.6902 9.55886 13.6528 9.49243 13.5864C9.42599 13.52 9.38858 13.43 9.3884 13.336V10.0813C9.38858 9.98738 9.42599 9.89733 9.49242 9.8309C9.55885 9.76446 9.6489 9.72706 9.74285 9.72687H12.3689V7.10078C12.3691 7.00684 12.4065 6.9168 12.4729 6.85038Z" fill="white"/>
<path d="M22.451 6.09805V0.842734C22.5284 0.878625 22.5987 0.928135 22.6586 0.988906L27.9146 6.24484C27.9754 6.30472 28.0249 6.37506 28.0607 6.4525H22.8054C22.7115 6.45231 22.6214 6.41491 22.555 6.34848C22.4886 6.28204 22.4512 6.192 22.451 6.09805Z" fill="white"/>
<path d="M27.6711 31.67H28.9304C29.2052 31.67 29.4311 31.6263 29.6079 31.5389C29.7869 31.4516 29.919 31.3301 30.0042 31.1746C30.0916 31.019 30.1342 30.8369 30.1321 30.6281C30.1342 30.4235 30.0916 30.2403 30.0042 30.0783C29.919 29.9143 29.789 29.7854 29.6143 29.6916C29.4417 29.5957 29.2223 29.5478 28.9559 29.5478H27.6711V31.67Z" fill="white"/>
<path fill-rule="evenodd" clip-rule="evenodd" d="M28.1222 24.621C32.1532 24.621 35.4211 27.8885 35.4211 31.9198C35.4211 35.9507 32.1532 39.2186 28.1222 39.2186C24.091 39.2186 20.8234 35.9507 20.8234 31.9198C20.8234 27.8886 24.091 24.621 28.1222 24.621ZM27.6711 32.6448H28.9559C29.4566 32.6448 29.8828 32.5595 30.2343 32.3891C30.5859 32.2165 30.8544 31.9789 31.0397 31.6764C31.2251 31.3717 31.3178 31.019 31.3178 30.6185C31.3178 30.2328 31.2262 29.8855 31.0429 29.5766C30.8618 29.2655 30.5955 29.0194 30.2439 28.8383C29.8924 28.6551 29.463 28.5634 28.9559 28.5634H26.4886V31.67H25.5266V32.6448H26.4886V33.1306H25.5266V34.1053H26.4886V35.1089H27.6711V34.1053H29.1061V33.1306H27.6711V32.6448Z" fill="white"/>
</svg>
