<svg width="39" height="40" viewBox="0 0 39 40" fill="none" xmlns="http://www.w3.org/2000/svg">
<path fill-rule="evenodd" clip-rule="evenodd" d="M8.07871 0.991728C7.36651 0.666977 6.59037 0.499133 5.80488 0.500003C4.3587 0.500003 2.97175 1.06312 1.94915 2.06547C0.926544 3.06782 0.352051 4.42729 0.352051 5.84483C0.352051 7.26237 0.926544 8.62184 1.94915 9.62419C2.97175 10.6265 4.3587 11.1897 5.80488 11.1897H5.99028C7.21701 11.148 8.3935 10.7018 9.3294 9.92328C10.2653 9.1448 10.9059 8.07957 11.1474 6.89995C11.389 5.72032 11.2175 4.49531 10.6606 3.42311C10.1037 2.35091 9.19399 1.49424 8.07871 0.991728ZM4.67614 7.17035C4.53153 7.17035 4.39283 7.11404 4.29057 7.0138C4.18831 6.91357 4.13086 6.77762 4.13086 6.63586V3.96345C4.13086 3.8217 4.18831 3.68575 4.29057 3.58551C4.39283 3.48528 4.53153 3.42897 4.67614 3.42897C4.82076 3.42897 4.95946 3.48528 5.06172 3.58551C5.16398 3.68575 5.22143 3.8217 5.22143 3.96345V6.10138H6.93362C7.07823 6.10138 7.21693 6.15769 7.31919 6.25793C7.42145 6.35816 7.4789 6.49411 7.4789 6.63586C7.4789 6.77762 7.42145 6.91357 7.31919 7.0138C7.21693 7.11404 7.07823 7.17035 6.93362 7.17035H4.67614Z" fill="white"/>
<path fill-rule="evenodd" clip-rule="evenodd" d="M21.5275 11.0007C23.4553 11.6724 25.5537 11.6724 27.4815 11.0007C35.7523 8.15699 42.4998 18.0606 37.0091 24.7325C35.7683 26.2855 34.9271 28.119 34.5591 30.0724C34.2368 31.6295 33.9877 32.8804 33.7861 33.8928C33.0063 37.8095 32.9374 38.1552 32.086 38.8409C31.7071 39.1475 31.2568 39.3535 30.777 39.4399C30.2972 39.5262 29.8034 39.49 29.3413 39.3346C28.8792 39.1792 28.4639 38.9097 28.1337 38.5511C27.8035 38.1924 27.5692 37.7562 27.4525 37.2829L26.2015 32.1747C26.1073 31.799 25.8903 31.4656 25.585 31.2273C25.2796 30.9891 24.9034 30.8596 24.5161 30.8596C24.1287 30.8596 23.7525 30.9891 23.4472 31.2273C23.1418 31.4656 22.9248 31.799 22.8306 32.1747C22.5766 33.2133 22.3752 34.0699 22.2077 34.7822C21.516 37.7242 21.4031 38.2042 20.5544 38.8756C20.1665 39.1823 19.7065 39.3846 19.2183 39.4632C18.73 39.5418 18.2298 39.494 17.7652 39.3245C17.3007 39.1549 16.8873 38.8692 16.5644 38.4946C16.2416 38.12 16.0201 37.6689 15.921 37.1845C15.6739 35.9907 15.4655 34.9167 15.2763 33.9415C14.4099 29.4758 13.9452 27.0808 12.0057 24.7325C6.47445 18.0606 13.2799 8.16278 21.5275 11.0007ZM24.5045 15.744C26.8478 15.6938 29.1414 15.0587 31.1767 13.8965V13.9196C31.2937 13.8337 31.3742 13.707 31.4022 13.5646C31.4302 13.4221 31.4037 13.2744 31.328 13.1506C31.2522 13.0268 31.1327 12.9359 30.9932 12.896C30.8536 12.8561 30.7041 12.87 30.5743 12.9351C28.7145 13.9685 26.6316 14.5349 24.5045 14.5857C22.3699 14.5361 20.2792 13.9697 18.4115 12.9351C18.2835 12.8862 18.1424 12.8842 18.0132 12.9295C17.8839 12.9747 17.7749 13.0644 17.7054 13.1824C17.636 13.3004 17.6106 13.4393 17.6339 13.5742C17.6571 13.7092 17.7274 13.8316 17.8323 13.9196C19.8698 15.0738 22.1632 15.7008 24.5045 15.744Z" fill="white"/>
</svg>
