<svg width="34" height="29" viewBox="0 0 34 29" fill="none" xmlns="http://www.w3.org/2000/svg">
<path d="M32.9358 0.964844H1.0643C0.89854 0.964844 0.739569 1.03069 0.622359 1.1479C0.505149 1.26511 0.439301 1.42408 0.439301 1.58984V27.4103C0.439301 27.5761 0.505149 27.735 0.622359 27.8523C0.739569 27.9695 0.89854 28.0353 1.0643 28.0353H32.9357C33.1015 28.0353 33.2604 27.9695 33.3777 27.8523C33.4949 27.735 33.5607 27.5761 33.5607 27.4103V1.58984C33.5607 1.42408 33.4949 1.26511 33.3777 1.1479C33.2604 1.03069 33.1015 0.964844 32.9357 0.964844H32.9358ZM22.0997 12.9177L22.6055 15.5131L21.6823 20.2498C21.62 20.5699 21.4482 20.8583 21.1966 21.0657C20.9449 21.273 20.629 21.3864 20.3029 21.3864C20.0016 21.3864 19.7082 21.2896 19.4661 21.1102C19.224 20.9308 19.0459 20.6783 18.9582 20.39L18.0497 17.4036C17.9812 17.1785 17.8422 16.9815 17.6532 16.8414C17.4642 16.7013 17.2352 16.6257 17 16.6257C16.7648 16.6257 16.5358 16.7013 16.3468 16.8414C16.1578 16.9815 16.0188 17.1785 15.9503 17.4036L15.0417 20.39C14.954 20.6783 14.776 20.9307 14.5339 21.1101C14.2918 21.2895 13.9985 21.3864 13.6972 21.3864C13.3711 21.3864 13.0551 21.273 12.8035 21.0656C12.5518 20.8583 12.38 20.5698 12.3177 20.2498L10.842 12.6784C10.6724 11.8121 10.7627 10.9151 11.1016 10.1001C11.4405 9.28504 12.0129 8.58844 12.7467 8.09789C13.2215 7.78052 13.7802 7.61198 14.3513 7.61383C14.8456 7.61457 15.3323 7.73629 15.7688 7.96836C16.1491 8.1659 16.5714 8.26903 17 8.26903C17.4286 8.26903 17.8509 8.1659 18.2313 7.96836C18.6678 7.73625 19.1545 7.61453 19.6488 7.61383C20.2199 7.612 20.7786 7.78054 21.2534 8.09789C21.7628 8.44046 22.197 8.88347 22.5291 9.39977C22.0171 10.4974 21.8667 11.7292 22.0997 12.9177V12.9177ZM1.86672 7.61375C2.36108 7.61452 2.84774 7.73626 3.28422 7.96836C3.66458 8.1659 4.08688 8.26903 4.51547 8.26903C4.94407 8.26903 5.36637 8.1659 5.74672 7.96836C6.18322 7.73622 6.66991 7.61447 7.1643 7.61375C7.73539 7.61195 8.29405 7.78051 8.76883 8.09789C9.2783 8.44046 9.71243 8.88347 10.0446 9.39977C9.53253 10.4974 9.38216 11.7292 9.61516 12.9177L10.121 15.5132L9.1979 20.2498C9.13791 20.5578 8.97662 20.8368 8.73971 21.0425C8.5028 21.2481 8.20388 21.3686 7.89057 21.3847C7.57725 21.4009 7.26756 21.3117 7.01079 21.1314C6.75402 20.9512 6.56495 20.6902 6.47368 20.39L5.56524 17.4036C5.49679 17.1785 5.35781 16.9814 5.16881 16.8413C4.9798 16.7012 4.75077 16.6256 4.51551 16.6256C4.28025 16.6256 4.05123 16.7012 3.86222 16.8413C3.67321 16.9814 3.53423 17.1785 3.46579 17.4036L2.55719 20.39C2.49347 20.5991 2.38183 20.7905 2.23115 20.9488C2.08047 21.1072 1.8949 21.2282 1.68922 21.3023V7.62C1.74829 7.61633 1.80743 7.61375 1.86672 7.61375ZM32.3108 21.3023C32.1051 21.2282 31.9195 21.1072 31.7689 20.9488C31.6182 20.7905 31.5065 20.5991 31.4428 20.39L30.5342 17.4036C30.4658 17.1785 30.3268 16.9814 30.1378 16.8414C29.9488 16.7013 29.7198 16.6257 29.4845 16.6257C29.2493 16.6257 29.0203 16.7013 28.8313 16.8414C28.6423 16.9814 28.5033 17.1785 28.4348 17.4036L27.5263 20.39C27.4351 20.6902 27.246 20.9511 26.9892 21.1314C26.7324 21.3117 26.4227 21.4008 26.1094 21.3847C25.7961 21.3686 25.4972 21.2481 25.2603 21.0424C25.0234 20.8367 24.8621 20.5577 24.8021 20.2498L23.3266 12.6784C23.1569 11.8121 23.2473 10.9151 23.5862 10.1001C23.9251 9.28504 24.4974 8.58844 25.2313 8.09789C25.706 7.78051 26.2647 7.61197 26.8358 7.61383C27.3301 7.61457 27.8168 7.73629 28.2533 7.96836C28.6336 8.1659 29.0559 8.26903 29.4845 8.26903C29.9131 8.26903 30.3354 8.1659 30.7158 7.96836C31.1523 7.73625 31.639 7.61453 32.1334 7.61383C32.1926 7.61383 32.2517 7.61641 32.3107 7.62008L32.3108 21.3023Z" fill="white"/>
</svg>
