<svg width="29" height="39" viewBox="0 0 29 39" fill="none" xmlns="http://www.w3.org/2000/svg">
<path d="M10.5082 24.9083C10.8528 25.2784 11.0117 25.5997 11.7148 27.0212C11.9297 27.4558 12.1956 27.9933 12.5332 28.6666H18.9998V26.9999H25.6665C25.8875 26.9999 26.0995 26.9121 26.2558 26.7558C26.4121 26.5996 26.4998 26.3876 26.4998 26.1666C26.4998 25.9456 26.4121 25.7336 26.2558 25.5773C26.0995 25.421 25.8875 25.3333 25.6665 25.3333C22.7323 25.3333 20.4251 25.3397 18.5983 25.3448C12.7241 25.3612 11.8167 25.3637 10.9992 25.0939C10.8499 25.0446 10.7036 24.9862 10.5306 24.9172L10.5082 24.9083Z" fill="white"/>
<path d="M18.9998 3.66659H25.6665V16.1666H18.9998V3.66659Z" fill="white"/>
<path d="M19.8332 0.333252H24.8332V1.99992H19.8332V0.333252Z" fill="white"/>
<path d="M18.9998 17.8333H26.4998V19.4999H18.9998V17.8333Z" fill="white"/>
<path fill-rule="evenodd" clip-rule="evenodd" d="M11.4998 6.16659C11.9943 6.16659 12.4776 6.01996 12.8888 5.74526C13.2999 5.47056 13.6203 5.08011 13.8095 4.62329C13.9988 4.16648 14.0483 3.66381 13.9518 3.17886C13.8553 2.69391 13.6172 2.24845 13.2676 1.89882C12.918 1.54919 12.4725 1.31109 11.9876 1.21462C11.5026 1.11816 11 1.16767 10.5431 1.35689C10.0863 1.54611 9.69588 1.86654 9.42117 2.27766C9.14647 2.68878 8.99985 3.17213 8.99985 3.66659C8.99985 4.32963 9.26324 4.96551 9.73208 5.43435C10.2009 5.90319 10.8368 6.16659 11.4998 6.16659ZM11.4998 2.83325C11.7209 2.83325 11.9328 2.92105 12.0891 3.07733C12.2454 3.23361 12.3332 3.44557 12.3332 3.66659C12.3332 3.8876 12.2454 4.09956 12.0891 4.25584C11.9328 4.41212 11.7209 4.49992 11.4998 4.49992C11.2788 4.49992 11.0669 4.41212 10.9106 4.25584C10.7543 4.09956 10.6665 3.8876 10.6665 3.66659C10.6665 3.44557 10.7543 3.23361 10.9106 3.07733C11.0669 2.92105 11.2788 2.83325 11.4998 2.83325Z" fill="white"/>
<path d="M13.9999 35.3334L9.55826 26.4501C9.38951 26.1152 9.13109 25.8338 8.8118 25.6372C8.49252 25.4405 8.12491 25.3364 7.74993 25.3364C7.37495 25.3364 7.00734 25.4405 6.68806 25.6372C6.36877 25.8338 6.11035 26.1152 5.9416 26.4501C5.64592 27.0414 5.45237 27.4292 5.29806 27.7383C5.20118 27.9325 5.11976 28.0956 5.03824 28.2586C4.60913 29.117 4.17722 29.974 1.47162 35.3422L1.33326 35.6167C1.13902 36.0074 1.07233 36.4492 1.1426 36.8798C1.21287 37.3104 1.41656 37.7081 1.72493 38.0167C1.75747 38.0493 1.7867 38.0802 1.81447 38.1096C1.85541 38.1529 1.89319 38.1929 1.93378 38.2298C2.41964 38.6713 3.30846 38.6693 14.835 38.6435C18.423 38.6354 23.0417 38.6251 28.9999 38.6251V35.3334H13.9999Z" fill="white"/>
<path d="M3.0416 28.5251L4.44993 25.7084C4.82273 24.9618 5.438 24.3639 6.19498 24.0127C6.95196 23.6615 7.80578 23.5777 8.6166 23.7751C7.83141 23.09 7.2305 22.2189 6.86884 21.2417C6.50717 20.2644 6.39629 19.212 6.54633 18.1808C6.69637 17.1496 7.10254 16.1725 7.7277 15.3387C8.35286 14.505 9.17706 13.8414 10.1249 13.4084C9.90405 12.9241 9.80236 12.3939 9.82838 11.8623C9.8544 11.3306 10.0074 10.8129 10.2745 10.3525C10.5416 9.89206 10.9151 9.5023 11.3637 9.21582C11.8124 8.92933 12.3231 8.75446 12.8532 8.70582C13.3832 8.65718 13.9172 8.7362 14.4105 8.93626C14.9038 9.13632 15.342 9.4516 15.6884 9.85573C16.0349 10.2599 16.2795 10.7411 16.4018 11.2591C16.5242 11.7772 16.5207 12.317 16.3916 12.8334H17.3333V3.66675H15.6666C15.6596 4.70097 15.2682 5.69564 14.5686 6.45731C13.8689 7.21898 12.911 7.69321 11.881 7.78778C10.8511 7.88236 9.82283 7.59051 8.99615 6.969C8.16948 6.34749 7.60349 5.44074 7.40826 4.42508L0.666595 11.1667V25.3334C0.666797 26.05 0.897936 26.7475 1.32574 27.3224C1.75354 27.8973 2.35524 28.3191 3.0416 28.5251Z" fill="white"/>
<path d="M14.8332 11.9999C14.8332 12.9204 14.087 13.6666 13.1665 13.6666C12.246 13.6666 11.4998 12.9204 11.4998 11.9999C11.4998 11.0794 12.246 10.3333 13.1665 10.3333C14.087 10.3333 14.8332 11.0794 14.8332 11.9999Z" fill="white"/>
</svg>
