<svg width="38" height="36" viewBox="0 0 38 36" fill="none" xmlns="http://www.w3.org/2000/svg">
<path d="M17.6526 18.1714H20.2955C20.8723 18.1714 21.3463 18.0797 21.7175 17.8964C22.0931 17.713 22.3704 17.4581 22.5492 17.1317C22.7326 16.8053 22.822 16.4229 22.8176 15.9847C22.822 15.5554 22.7326 15.1708 22.5492 14.831C22.3704 14.4866 22.0976 14.2161 21.7309 14.0193C21.3687 13.8181 20.9081 13.7175 20.3491 13.7175H17.6526V18.1714Z" fill="white"/>
<path fill-rule="evenodd" clip-rule="evenodd" d="M36.2197 17.858C36.5623 18.0923 36.8257 18.4252 36.975 18.8125C37.1154 19.196 37.138 19.6126 37.04 20.009C36.942 20.4055 36.7279 20.7636 36.425 21.0375L22.05 34.375C21.2352 35.1734 20.1408 35.6219 19 35.625C17.8519 35.6218 16.7497 35.1738 15.925 34.375L1.53751 21.0687C1.23263 20.788 1.01972 20.4216 0.92671 20.0177C0.833698 19.6137 0.864925 19.1912 1.01629 18.8053C1.16766 18.4194 1.43211 18.0883 1.77495 17.8554C2.11779 17.6225 2.52303 17.4986 2.93751 17.5H5.25001V3.75C5.25001 2.9212 5.57925 2.12634 6.1653 1.54029C6.75135 0.95424 7.54621 0.625 8.37501 0.625H29.625C30.4538 0.625 31.2487 0.95424 31.8347 1.54029C32.4208 2.12634 32.75 2.9212 32.75 3.75V17.5H35.0563C35.4714 17.4988 35.8771 17.6236 36.2197 17.858ZM17.6526 20.2173H20.3491C21.4 20.2173 22.2944 20.0384 23.0322 19.6806C23.77 19.3184 24.3335 18.8198 24.7225 18.1848C25.1116 17.5453 25.3061 16.8053 25.3061 15.9646C25.3061 15.1552 25.1138 14.4263 24.7292 13.7779C24.3491 13.125 23.7902 12.6085 23.0523 12.2284C22.3145 11.8438 21.4134 11.6515 20.3491 11.6515H15.1708V18.1714H13.1518V20.2173H15.1708V21.2368H13.1518V23.2827H15.1708V25.3889H17.6526V23.2827H20.6644V21.2368H17.6526V20.2173Z" fill="white"/>
</svg>
