<svg width="28" height="36" viewBox="0 0 28 36" fill="none" xmlns="http://www.w3.org/2000/svg">
<path d="M17.9249 18.5737C18.0941 18.6657 18.2376 18.7985 18.3425 18.96C20.1821 18.8032 21.8161 18.2304 22.9389 17.4268C22.8509 17.2048 22.8017 16.9664 22.8017 16.7116V12.8616C22.802 12.5032 22.9023 12.152 23.0914 11.8475C23.2805 11.543 23.5509 11.2975 23.8721 11.1384C23.5985 5.9308 19.2753 1.7788 14.0005 1.7788C8.72531 1.7788 4.40251 5.9304 4.12851 11.1384C4.44986 11.2972 4.72042 11.5426 4.90963 11.8471C5.09885 12.1515 5.19918 12.5028 5.19931 12.8612V16.7112C5.19962 16.9643 5.15007 17.2149 5.05347 17.4489C4.95688 17.6828 4.81514 17.8954 4.63635 18.0745C4.45757 18.2536 4.24524 18.3958 4.0115 18.4928C3.77776 18.5898 3.52719 18.6398 3.27411 18.64H3.17691C2.66585 18.6395 2.17593 18.436 1.8149 18.0743C1.45387 17.7126 1.25129 17.2223 1.25171 16.7112V12.8612C1.25177 12.4975 1.35515 12.1412 1.54982 11.8339C1.74449 11.5267 2.02244 11.281 2.35131 11.1256C2.63211 4.9444 7.74971 0 14.0005 0C20.2509 0 25.3677 4.9444 25.6513 11.126C25.9798 11.2817 26.2573 11.5275 26.4516 11.8348C26.6459 12.142 26.749 12.4981 26.7489 12.8616V16.7116C26.7493 16.9647 26.6997 17.2155 26.6031 17.4494C26.5065 17.6834 26.3646 17.896 26.1858 18.0752C26.0069 18.2543 25.7944 18.3963 25.5606 18.4933C25.3267 18.5902 25.0761 18.6401 24.8229 18.64H24.7277C24.3601 18.6401 24.0003 18.5338 23.6917 18.334C22.3865 19.2972 20.5293 19.9492 18.3933 20.118C18.2005 20.4856 17.8205 20.7416 17.3737 20.7416H15.8409C15.6892 20.7416 15.539 20.7117 15.3988 20.6536C15.2586 20.5955 15.1313 20.5104 15.0241 20.4031C14.9168 20.2958 14.8318 20.1684 14.7738 20.0282C14.7158 19.888 14.686 19.7377 14.6861 19.586C14.6862 19.4345 14.7161 19.2844 14.7742 19.1444C14.8322 19.0045 14.9173 18.8773 15.0246 18.7703C15.1318 18.6632 15.2591 18.5783 15.3992 18.5205C15.5393 18.4626 15.6894 18.433 15.8409 18.4332H17.3737C17.5663 18.4334 17.7557 18.4817 17.9249 18.5737Z" fill="white"/>
<path d="M6.2981 12.519C6.2981 8.26339 9.7481 4.81299 14.0041 4.81299C18.2609 4.81299 21.7109 8.26379 21.7109 12.5194C21.7109 14.0466 21.2657 15.8494 20.4993 17.5334C19.9207 17.7214 19.3259 17.8553 18.7225 17.9334C18.3465 17.6258 17.8729 17.4526 17.3737 17.4526H15.8409C15.275 17.4529 14.7324 17.6777 14.332 18.0776C13.9316 18.4775 13.7062 19.0199 13.7053 19.5858C13.7059 20.152 13.9311 20.6949 14.3315 21.0953C14.7318 21.4958 15.2747 21.721 15.8409 21.7218H17.3737C17.3993 21.7218 17.4243 21.7184 17.4494 21.715C17.4688 21.7123 17.4883 21.7096 17.5081 21.7086C16.4565 22.611 15.2661 23.1766 14.0041 23.1766C9.7481 23.1766 6.2981 16.7762 6.2981 12.519Z" fill="white"/>
<path d="M23.3484 25.3671C23.3104 24.3987 23.1368 23.5607 22.84 22.8755C25.8988 24.3827 28.0032 27.5303 28.0028 31.1723C28.0028 35.7759 24.638 36.0011 20.2344 36.0011C19.9976 36.0011 19.7583 36.0004 19.5165 35.9997L19.5127 35.9997C19.2643 35.999 19.0131 35.9983 18.7592 35.9983H9.2424C8.98899 35.9983 8.73842 35.999 8.49074 35.9997L8.4875 35.9997C8.24467 36.0004 8.00402 36.0011 7.7668 36.0011C3.3632 36.0011 0 35.7763 0 31.1731C0 27.5695 2.0608 24.4507 5.0672 22.9255C4.8048 23.5827 4.6624 24.3791 4.6516 25.3035C4.43519 25.428 4.26517 25.6195 4.1672 25.8491C3.8884 25.9921 3.63273 26.1763 3.4088 26.3955C2.978 26.8111 2.588 27.3843 2.2812 28.0555C2.20953 28.2099 2.1941 28.3845 2.2376 28.5491C1.9432 29.3211 1.7812 30.1295 1.7812 30.8319C1.7812 31.6323 1.822 32.1043 2.0456 32.4639C2.2312 32.7619 2.5228 32.9447 2.9364 33.0219C3.0508 33.1095 3.1904 33.1579 3.334 33.1579H4.0588C4.4216 33.1579 4.7172 32.8627 4.7172 32.4735L4.7132 32.4319C4.6788 32.0983 4.3968 31.8403 4.0588 31.8403H3.334C3.25338 31.8404 3.17344 31.8551 3.098 31.8835C3.05061 31.8722 3.0282 31.8618 3.02123 31.8585L3.0188 31.8575C2.9272 31.7083 2.9272 31.0727 2.9272 30.8319C2.9272 30.2883 3.0532 29.6515 3.2812 29.0323C3.43586 28.9569 3.55966 28.8302 3.6316 28.6739C4.0684 27.7207 4.6948 27.0795 5.1908 27.0795C5.6748 27.0795 6.2712 27.6715 6.7104 28.5911C6.77559 28.7272 6.88101 28.84 7.0124 28.9143C7.2648 29.5607 7.4088 30.2563 7.4088 30.8319C7.4088 31.1179 7.4088 31.7127 7.3284 31.8555C7.3284 31.8555 7.3144 31.8667 7.2704 31.8791C7.2008 31.8535 7.1288 31.8415 7.054 31.8415H6.3308C6.16102 31.8425 5.99809 31.9086 5.87565 32.0262C5.7532 32.1438 5.68059 32.3039 5.6728 32.4735L5.6724 32.4991C5.67251 32.6737 5.74191 32.8411 5.86536 32.9646C5.98881 33.088 6.15621 33.1574 6.3308 33.1575H7.054C7.2084 33.1575 7.3552 33.1043 7.4724 33.0059C8.5556 32.7647 8.5556 31.8251 8.5556 30.8315C8.5556 30.1227 8.384 29.2791 8.084 28.5063C8.1456 28.3239 8.1344 28.1247 8.0508 27.9487C7.55 26.9015 6.896 26.1671 6.1556 25.8171C6.0556 25.5975 5.8924 25.4163 5.6908 25.3003C5.7088 23.8275 6.064 22.8135 6.7512 22.2691C7.28782 22.1193 7.83683 22.0181 8.3916 21.9667C8.4292 23.6527 14.0028 27.8127 14.0028 27.8127C14.0028 27.8127 19.5752 23.6523 19.612 21.9663C20.1126 22.0124 20.6085 22.0995 21.0948 22.2267C22.0356 22.9499 22.2668 24.4131 22.3096 25.3759C21.326 25.6179 20.5932 26.5039 20.5932 27.5603C20.5936 28.1576 20.831 28.7304 21.2533 29.1528C21.6756 29.5753 22.2483 29.8129 22.8456 29.8135C23.443 29.813 24.0157 29.5754 24.4381 29.153C24.8605 28.7305 25.098 28.1577 25.0984 27.5603C25.0984 26.4923 24.3492 25.5967 23.3484 25.3671Z" fill="white"/>
<path d="M22.8453 28.6012C23.4194 28.6012 23.8849 28.1357 23.8849 27.5616C23.8849 26.9874 23.4194 26.522 22.8453 26.522C22.2711 26.522 21.8057 26.9874 21.8057 27.5616C21.8057 28.1357 22.2711 28.6012 22.8453 28.6012Z" fill="white"/>
</svg>
