<svg width="18" height="15" viewBox="0 0 18 15" fill="none" xmlns="http://www.w3.org/2000/svg">
<path fill-rule="evenodd" clip-rule="evenodd" d="M15.2454 0.61082C15.43 0.499744 15.6505 0.464516 15.8606 0.512527C16.0706 0.560539 16.254 0.688058 16.372 0.86832L17.197 2.12665C17.3046 2.29104 17.3506 2.48813 17.327 2.68314C17.3033 2.87816 17.2116 3.05855 17.0679 3.19249L17.0654 3.19582L17.0537 3.20665L17.0062 3.25082L16.8187 3.42999C15.7812 4.43637 14.7752 5.47465 13.802 6.54332C11.9712 8.55665 9.79702 11.1917 8.33369 13.7483C7.92535 14.4617 6.92785 14.615 6.33619 13.9992L0.932021 8.38415C0.854575 8.30366 0.794104 8.20841 0.754201 8.10408C0.714298 7.99974 0.695779 7.88845 0.699744 7.77682C0.703709 7.66518 0.730076 7.55549 0.77728 7.45425C0.824484 7.35301 0.891559 7.26229 0.974521 7.18749L2.60785 5.71415C2.75139 5.58475 2.93544 5.50925 3.1285 5.50058C3.32156 5.49192 3.51164 5.55062 3.66619 5.66665L6.42369 7.73415C10.7312 3.48665 13.1737 1.85665 15.2454 0.61082Z" fill="#225378"/>
</svg>
