<svg width="17" height="14" viewBox="0 0 17 14" fill="none" xmlns="http://www.w3.org/2000/svg">
<path fill-rule="evenodd" clip-rule="evenodd" d="M14.7454 0.11082C14.93 -0.000255562 15.1505 -0.0354844 15.3606 0.0125271C15.5706 0.0605387 15.754 0.188058 15.872 0.36832L16.697 1.62665C16.8046 1.79104 16.8506 1.98813 16.827 2.18314C16.8033 2.37816 16.7116 2.55855 16.5679 2.69249L16.5654 2.69582L16.5537 2.70665L16.5062 2.75082L16.3187 2.92999C15.2812 3.93637 14.2752 4.97465 13.302 6.04332C11.4712 8.05665 9.29702 10.6917 7.83369 13.2483C7.42535 13.9617 6.42785 14.115 5.83619 13.4992L0.432021 7.88415C0.354575 7.80366 0.294104 7.70841 0.254201 7.60408C0.214298 7.49974 0.195779 7.38845 0.199744 7.27682C0.203709 7.16518 0.230076 7.05549 0.27728 6.95425C0.324484 6.85301 0.391559 6.76229 0.474521 6.68749L2.10785 5.21415C2.25139 5.08475 2.43544 5.00925 2.6285 5.00058C2.82156 4.99192 3.01164 5.05062 3.16619 5.16665L5.92369 7.23415C10.2312 2.98665 12.6737 1.35665 14.7454 0.11082Z" fill="white"/>
</svg>
