<svg width="40" height="34" viewBox="0 0 40 34" fill="none" xmlns="http://www.w3.org/2000/svg">
<path d="M40.0001 11.1406C40.0001 11.3757 39.9351 11.6062 39.8121 11.8065C39.6892 12.0069 39.5132 12.1693 39.3036 12.2758L37.6564 13.1128V27.4677C37.6564 28.1148 37.1317 28.6395 36.4845 28.6395C35.8373 28.6395 35.3126 28.1148 35.3126 27.4677V14.3038L21.4779 21.3336C21.02 21.5663 20.5137 21.6875 20.0001 21.6875C19.4865 21.6875 18.9802 21.5663 18.5224 21.3336L0.696604 12.2758C0.487014 12.1693 0.31099 12.0069 0.188036 11.8066C0.0650826 11.6062 0 11.3757 0 11.1406C0 10.9055 0.0650826 10.6751 0.188036 10.4747C0.31099 10.2743 0.487014 10.1119 0.696604 10.0055L18.5224 0.947656C18.9802 0.714979 19.4865 0.593704 20.0001 0.593704C20.5137 0.593704 21.02 0.714979 21.4779 0.947656L39.3036 10.0055C39.5132 10.1119 39.6892 10.2744 39.8121 10.4747C39.9351 10.6751 40.0001 10.9056 40.0001 11.1406ZM32.9689 19.397C32.9689 18.814 32.3535 18.4364 31.8337 18.7005L22.5395 23.4231C21.7524 23.8219 20.8825 24.0302 20.0001 24.0312C19.1177 24.0302 18.2478 23.8219 17.4607 23.423L8.16653 18.7004C7.64676 18.4363 7.03137 18.8139 7.03137 19.3969V27.9205C7.03136 28.1368 7.09125 28.3489 7.20439 28.5333C7.31753 28.7177 7.47951 28.8672 7.67239 28.9652L13.2138 31.781C15.3065 32.8443 17.6531 33.4062 20.0001 33.4062C22.3471 33.4062 24.6936 32.8443 26.7861 31.7812L32.3279 28.9652C32.5207 28.8672 32.6827 28.7177 32.7958 28.5333C32.909 28.3489 32.9689 28.1368 32.9689 27.9205V19.397Z" fill="#225378"/>
</svg>
