<svg width="37" height="33" viewBox="0 0 37 33" fill="none" xmlns="http://www.w3.org/2000/svg">
<path fill-rule="evenodd" clip-rule="evenodd" d="M25.2236 6.32553H33.1206C35.1323 6.32553 36.7689 7.97942 36.7688 10.0123C36.7688 10.2117 36.7712 10.4093 36.7735 10.6057C36.7922 12.2026 36.8099 13.7138 35.5712 15.382C34.7878 16.4371 33.7111 17.1897 32.4577 17.5585L20.2863 21.1395C19.0834 21.4941 17.8053 21.4941 16.6023 21.1395L4.43095 17.5585C3.17755 17.1898 2.10089 16.4371 1.31741 15.382C0.081244 13.7172 0.097738 12.2171 0.11551 10.6007C0.117646 10.4064 0.119801 10.2104 0.119801 10.0123C0.119801 7.97942 1.7565 6.32553 3.76821 6.32553H11.6652V3.10998C11.6652 1.57889 12.8979 0.333344 14.413 0.333344H22.4757C23.9909 0.333344 25.2236 1.57889 25.2236 3.10998V6.32553ZM14.1159 2.80976C14.0371 2.88939 13.9928 2.99736 13.9927 3.10998V6.32553H22.8961V3.10998C22.896 2.99736 22.8517 2.88939 22.7728 2.80976C22.694 2.73014 22.5872 2.68535 22.4757 2.68524H14.413C14.3016 2.68535 14.1948 2.73014 14.1159 2.80976Z" fill="#225378"/>
<path d="M26.6405 21.7289C28.3346 21.2262 30.4483 20.5991 33.1077 19.8167C34.5175 19.4019 35.7662 18.6371 36.7682 17.583V28.8689C36.7682 30.9017 35.1315 32.5556 33.1198 32.5556H3.76752C1.75574 32.5556 0.119113 30.9017 0.119113 28.8689V17.583C1.12108 18.6372 2.36975 19.4019 3.77967 19.8167C6.45265 20.6032 8.57527 21.2327 10.2743 21.7365C17.075 23.7533 17.0886 23.7573 18.4436 23.7573C19.8038 23.7573 19.9713 23.7077 26.6405 21.7289Z" fill="#225378"/>
</svg>
