<svg width="19" height="23" viewBox="0 0 19 23" fill="none" xmlns="http://www.w3.org/2000/svg">
<path fill-rule="evenodd" clip-rule="evenodd" d="M9.02265 -0.00231934C6.63151 0.000678748 4.33911 0.951624 2.64797 2.64206C0.956821 4.3325 0.00491555 6.6245 0.000915527 9.01563C0.000915527 12.4663 2.1817 15.6109 4.26044 17.9467C6.33918 20.2824 8.41792 21.8396 8.41792 21.8396C8.59129 21.9696 8.80216 22.0399 9.01887 22.0399C9.23558 22.0399 9.44644 21.9696 9.61981 21.8396C9.61981 21.8396 11.6986 20.2824 13.7773 17.9467C15.856 15.6109 18.0368 12.4663 18.0368 9.01563C18.0348 6.62454 17.0841 4.33195 15.3933 2.64119C13.7026 0.950428 11.4137 -0.000317581 9.02265 -0.00231934ZM9.01887 5.00933C10.0814 5.00933 11.1004 5.43143 11.8517 6.18275C12.6031 6.93408 13.0252 7.9531 13.0252 9.01563C13.0252 10.0782 12.6031 11.0972 11.8517 11.8485C11.1004 12.5998 10.0814 13.0219 9.01887 13.0219C7.95633 13.0219 6.93731 12.5998 6.18599 11.8485C5.43466 11.0972 5.01257 10.0782 5.01257 9.01563C5.01257 7.9531 5.43466 6.93408 6.18599 6.18275C6.93731 5.43143 7.95633 5.00933 9.01887 5.00933Z" fill="#225378"/>
</svg>
