<svg width="36" height="36" viewBox="0 0 36 36" fill="none" xmlns="http://www.w3.org/2000/svg">
<path d="M7.875 19.327C7.25368 19.327 6.75 18.8233 6.75 18.202C6.75 17.5807 7.25368 17.077 7.875 17.077H28.125C28.7463 17.077 29.25 17.5807 29.25 18.202C29.25 18.8233 28.7463 19.327 28.125 19.327H7.875ZM7.875 13.327C7.25368 13.327 6.75 12.8233 6.75 12.202C6.75 11.5807 7.25368 11.077 7.875 11.077H28.125C28.7463 11.077 29.25 11.5807 29.25 12.202C29.25 12.8233 28.7463 13.327 28.125 13.327H7.875Z" fill="white"/>
<path fill-rule="evenodd" clip-rule="evenodd" d="M7.875 22.6442C7.25368 22.6442 6.75 23.1479 6.75 23.7692C6.75 24.3906 7.25368 24.8942 7.875 24.8942H28.125C28.7463 24.8942 29.25 24.3906 29.25 23.7692C29.25 23.1479 28.7463 22.6442 28.125 22.6442H7.875Z" fill="white"/>
</svg>
