<svg width="25" height="23" viewBox="0 0 25 23" fill="none" xmlns="http://www.w3.org/2000/svg">
<path d="M17.0745 14.7073L16.4678 15.3113C16.4678 15.3113 15.0238 16.746 11.0838 12.8287C7.14384 8.91132 8.58784 7.47665 8.58784 7.47665L8.96917 7.09532C9.91184 6.15932 10.0012 4.65532 9.17851 3.55665L7.49851 1.31265C6.47984 -0.0473451 4.51317 -0.227345 3.34651 0.932655L1.25317 3.01266C0.67584 3.58865 0.289173 4.33265 0.335839 5.15932C0.455839 7.27532 1.41317 11.826 6.75184 17.1353C12.4145 22.7647 17.7278 22.9887 19.8998 22.786C20.5878 22.722 21.1852 22.3727 21.6665 21.8927L23.5598 20.01C24.8398 18.7393 24.4798 16.5593 22.8425 15.67L20.2958 14.2847C19.2212 13.702 17.9145 13.8727 17.0745 14.7073Z" fill="#3E7CB1"/>
</svg>
