<svg width="50" height="48" viewBox="0 0 50 48" fill="none" xmlns="http://www.w3.org/2000/svg">
<path fill-rule="evenodd" clip-rule="evenodd" d="M41.0059 27.0703C41.1622 26.9151 41.25 26.7046 41.25 26.4851C41.2523 25.1705 41.6787 23.8913 42.4667 22.8351C42.6868 25.5283 41.8408 28.2006 40.1083 30.284C37.7442 33.1212 37.1861 35.9879 36.0664 41.7386C35.86 42.7989 35.6345 43.9572 35.375 45.2316C35.2134 46.0032 34.7927 46.6974 34.1817 47.2003C33.5707 47.7032 32.8058 47.985 32.0124 47.9994C31.219 48.0138 30.4442 47.7601 29.8151 47.2797C29.186 46.7994 28.7399 46.1209 28.55 45.3557L27.0417 39.2227C26.9313 38.7675 26.6699 38.3624 26.2996 38.0726C25.9292 37.7828 25.4715 37.6252 25 37.6252C24.5285 37.6252 24.0708 37.7828 23.7004 38.0726C23.3301 38.3624 23.0687 38.7675 22.9583 39.2227L21.45 45.3557C21.2601 46.1209 20.814 46.7994 20.1849 47.2797C19.5558 47.7601 18.781 48.0138 17.9876 47.9994C17.1942 47.985 16.4293 47.7032 15.8183 47.2003C15.2073 46.6974 14.7866 46.0032 14.625 45.2316C14.3198 43.7744 14.0633 42.4672 13.831 41.283C12.782 35.9358 12.2249 33.0961 9.89167 30.284C3.225 22.2392 11.4833 10.3788 21.4 13.8053C23.7319 14.6082 26.2681 14.6082 28.6 13.8053C30.2966 13.2245 32.1154 13.0884 33.8804 13.4103C35.6454 13.7322 37.2969 14.5011 38.675 15.6428C38.1183 16.5541 37.334 17.3073 36.3982 17.8293C35.4623 18.3513 34.4067 18.6245 33.3333 18.6223C33.1123 18.6223 32.9004 18.7095 32.7441 18.8647C32.5878 19.02 32.5 19.2305 32.5 19.45C32.5 19.6695 32.5878 19.88 32.7441 20.0352C32.9004 20.1904 33.1123 20.2776 33.3333 20.2776C34.9909 20.2776 36.5806 20.9316 37.7528 22.0958C38.9249 23.2599 39.5833 24.8388 39.5833 26.4851C39.5833 26.7046 39.6711 26.9151 39.8274 27.0703C39.9837 27.2255 40.1956 27.3127 40.4167 27.3127C40.6377 27.3127 40.8496 27.2255 41.0059 27.0703ZM16.8667 17.4222C19.3504 18.8196 22.146 19.5792 25 19.6321C27.8427 19.5737 30.6262 18.8143 33.1 17.4222C33.2509 17.2964 33.3521 17.1215 33.3855 16.9286C33.4189 16.7357 33.3824 16.5373 33.2825 16.3687C33.1826 16.2 33.0257 16.0719 32.8397 16.0072C32.6538 15.9425 32.4507 15.9453 32.2667 16.0152C25.3616 19.4442 21.2317 17.5622 18.8915 16.4958C17.7127 15.9587 16.9881 15.6285 16.5917 16.2883C16.4775 16.4751 16.4424 16.6991 16.4939 16.9116C16.5454 17.124 16.6794 17.3075 16.8667 17.4222Z" fill="white"/>
<path d="M0.833333 24.0021H3.33333C3.55435 24.0021 3.76631 24.0893 3.92259 24.2445C4.07887 24.3997 4.16667 24.6103 4.16667 24.8298C4.16667 25.0493 4.07887 25.2598 3.92259 25.415C3.76631 25.5702 3.55435 25.6574 3.33333 25.6574H0.833333C0.61232 25.6574 0.400358 25.5702 0.244078 25.415C0.0877973 25.2598 0 25.0493 0 24.8298C0 24.6103 0.0877973 24.3997 0.244078 24.2445C0.400358 24.0893 0.61232 24.0021 0.833333 24.0021Z" fill="white"/>
<path d="M46.6667 24.0021H49.1667C49.3877 24.0021 49.5996 24.0893 49.7559 24.2445C49.9122 24.3997 50 24.6103 50 24.8298C50 25.0493 49.9122 25.2598 49.7559 25.415C49.5996 25.5702 49.3877 25.6574 49.1667 25.6574H46.6667C46.4457 25.6574 46.2337 25.5702 46.0774 25.415C45.9211 25.2598 45.8333 25.0493 45.8333 24.8298C45.8333 24.6103 45.9211 24.3997 46.0774 24.2445C46.2337 24.0893 46.4457 24.0021 46.6667 24.0021Z" fill="white"/>
<path d="M25.8333 0.827659V3.31064C25.8333 3.53014 25.7455 3.74066 25.5893 3.89588C25.433 4.05109 25.221 4.13829 25 4.13829C24.779 4.13829 24.567 4.05109 24.4107 3.89588C24.2545 3.74066 24.1667 3.53014 24.1667 3.31064V0.827659C24.1667 0.60815 24.2545 0.397632 24.4107 0.242416C24.567 0.0871995 24.779 0 25 0C25.221 0 25.433 0.0871995 25.5893 0.242416C25.7455 0.397632 25.8333 0.60815 25.8333 0.827659Z" fill="white"/>
<path d="M3.675 36.1108L5.83333 34.8693C6.02562 34.7595 6.25392 34.7301 6.46802 34.7875C6.68213 34.845 6.86449 34.9845 6.975 35.1755C7.08551 35.3665 7.1151 35.5932 7.05728 35.8059C6.99946 36.0185 6.85895 36.1996 6.66667 36.3094L4.50833 37.5509C4.31605 37.6606 4.08775 37.69 3.87364 37.6326C3.65954 37.5752 3.47717 37.4356 3.36667 37.2446C3.25616 37.0537 3.22656 36.8269 3.28439 36.6143C3.34221 36.4016 3.48272 36.2205 3.675 36.1108Z" fill="white"/>
<path d="M43.8719 14.8947C43.8394 14.8979 43.8066 14.8979 43.7667 14.8979C43.5807 14.903 43.3983 14.8461 43.2487 14.7364C43.099 14.6266 42.9906 14.4703 42.9408 14.2923C42.8909 14.1142 42.9025 13.9248 42.9736 13.754C43.0448 13.5833 43.1714 13.4411 43.3333 13.3501L45.5083 12.1086C45.7006 11.9989 45.9289 11.9695 46.143 12.0269C46.249 12.0554 46.3484 12.1043 46.4354 12.1708C46.5223 12.2374 46.5953 12.3203 46.65 12.4149C46.7605 12.6059 46.7901 12.8326 46.7323 13.0453C46.6745 13.2579 46.534 13.439 46.3417 13.5488C44.2826 14.7184 44.0839 14.874 43.8719 14.8947Z" fill="white"/>
<path d="M13.9486 7.00922C13.7345 6.95179 13.5522 6.81224 13.4417 6.62127L12.1917 4.47763C12.0812 4.28666 12.0516 4.05991 12.1094 3.84726C12.1672 3.63462 12.3077 3.4535 12.5 3.34374C12.6923 3.23399 12.9206 3.20459 13.1347 3.26202C13.2407 3.29046 13.34 3.33935 13.427 3.40592C13.514 3.47249 13.587 3.55541 13.6417 3.64998L14.8917 5.79361C15.0022 5.98458 15.0318 6.21133 14.9739 6.42398C14.9161 6.63663 14.7756 6.81775 14.5833 6.9275C14.3911 7.03726 14.1627 7.06665 13.9486 7.00922Z" fill="white"/>
<path d="M37.8083 4.47763L36.5583 6.62127C36.4478 6.81224 36.2655 6.95179 36.0514 7.00922C35.8373 7.06665 35.6089 7.03726 35.4167 6.9275C35.2244 6.81775 35.0839 6.63663 35.0261 6.42398C34.9682 6.21133 34.9978 5.98458 35.1083 5.79361L36.3583 3.64998C36.4131 3.55541 36.486 3.47249 36.573 3.40592C36.66 3.33935 36.7593 3.29046 36.8653 3.26202C36.9713 3.23359 37.0819 3.22617 37.1908 3.24019C37.2997 3.25421 37.4048 3.2894 37.5 3.34374C37.5952 3.39809 37.6787 3.47052 37.7457 3.55692C37.8128 3.64331 37.862 3.74197 37.8906 3.84726C37.9192 3.95256 37.9267 4.06242 37.9126 4.17058C37.8985 4.27874 37.863 4.38307 37.8083 4.47763Z" fill="white"/>
<path d="M4.50833 12.1086L6.66667 13.3501C6.85895 13.4599 6.99946 13.641 7.05728 13.8537C7.1151 14.0663 7.08551 14.2931 6.975 14.484C6.86449 14.675 6.68213 14.8146 6.46802 14.872C6.25392 14.9294 6.02562 14.9 5.83333 14.7903L3.675 13.5488C3.48272 13.439 3.34221 13.2579 3.28439 13.0453C3.22656 12.8326 3.25616 12.6059 3.36667 12.4149C3.47717 12.2239 3.65954 12.0844 3.87364 12.0269C4.08775 11.9695 4.31605 11.9989 4.50833 12.1086Z" fill="white"/>
<path d="M44.1667 34.8693L46.3417 36.1108C46.534 36.2227 46.6736 36.4059 46.7298 36.6201C46.7861 36.8343 46.7544 37.0619 46.6417 37.2529C46.5289 37.4439 46.3445 37.5826 46.1288 37.6385C45.9131 37.6943 45.6839 37.6628 45.4917 37.5509L43.3333 36.3094C43.141 36.1996 43.0005 36.0185 42.9427 35.8059C42.8849 35.5932 42.9145 35.3665 43.025 35.1755C43.1355 34.9845 43.3179 34.845 43.532 34.7875C43.7461 34.7301 43.9744 34.7595 44.1667 34.8693Z" fill="white"/>
<path d="M40.8267 22.7698C40.5549 23.423 40.4156 24.1231 40.4167 24.8299C40.4167 23.4031 39.846 22.0347 38.8302 21.0258C37.8143 20.0169 36.4366 19.4501 35 19.4501C35.7116 19.4512 36.4165 19.3128 37.0742 19.0428C37.7318 18.7728 38.3294 18.3766 38.8326 17.8768C39.3358 17.377 39.7348 16.7836 40.0066 16.1304C40.2784 15.4772 40.4178 14.7771 40.4167 14.0703C40.4167 15.4971 40.9873 16.8655 42.0032 17.8744C43.019 18.8833 44.3967 19.4501 45.8333 19.4501C45.1217 19.449 44.4168 19.5874 43.7592 19.8574C43.1015 20.1274 42.5039 20.5236 42.0007 21.0234C41.4975 21.5231 41.0986 22.1166 40.8267 22.7698Z" fill="white"/>
</svg>
