<svg width="33" height="44" viewBox="0 0 33 44" fill="none" xmlns="http://www.w3.org/2000/svg">
<path d="M32.25 31.0002C32.25 34.3817 30.9067 37.6247 28.5156 40.0158C26.1245 42.4069 22.8815 43.7502 19.5 43.7502H13.5C10.1185 43.7502 6.87548 42.4069 4.48439 40.0158C2.0933 37.6247 0.75 34.3817 0.75 31.0002H8.4675C8.67135 31.6712 9.00518 32.2956 9.45 32.8377C10.3299 33.9012 10.542 34.9915 11.0197 37.448C11.1079 37.9018 11.2052 38.4022 11.3175 38.9577C11.422 39.457 11.6931 39.9059 12.0862 40.2309C12.4794 40.5559 12.9713 40.7377 13.4813 40.7464C13.9913 40.7551 14.4892 40.5903 14.8932 40.2789C15.2972 39.9675 15.5835 39.5281 15.705 39.0327L16.35 36.3927C16.3602 36.3609 16.3802 36.3332 16.4072 36.3135C16.4341 36.2938 16.4666 36.2832 16.5 36.2832C16.5334 36.2832 16.5659 36.2938 16.5929 36.3135C16.6198 36.3332 16.6398 36.3609 16.65 36.3927L17.295 39.0327C17.4165 39.5281 17.7028 39.9675 18.1068 40.2789C18.5108 40.5903 19.0087 40.7551 19.5187 40.7464C20.0287 40.7377 20.5206 40.5559 20.9138 40.2309C21.3069 39.9059 21.578 39.457 21.6825 38.9577C21.8115 38.341 21.9212 37.7921 22.0197 37.2994C22.4936 34.9279 22.7067 33.8611 23.5575 32.8302C23.9986 32.2896 24.3298 31.6679 24.5325 31.0002H32.25Z" fill="white"/>
<path d="M12.51 19.9302C11.0055 20.6744 9.73899 21.8244 8.85368 23.2505C7.96836 24.6765 7.49948 26.3217 7.5 28.0002C6.65441 28.0003 5.84277 27.6675 5.24065 27.0738C4.63853 26.4801 4.29433 25.6732 4.2825 24.8277C4.2825 22.7802 6.6 19.5777 8.5125 18.0777C9.74249 18.8959 11.0907 19.5207 12.51 19.9302Z" fill="white"/>
<path d="M30.0357 6.46543C28.321 11.382 27.4663 13.8327 24.48 16.2027C23.1913 15.3167 21.7607 14.6572 20.25 14.2527C21.7513 13.3423 22.8949 11.9446 23.49 10.2927L26.4225 1.90022C26.6413 1.28458 27.0957 0.781085 27.6857 0.500484C28.2758 0.219883 28.9531 0.185165 29.5687 0.403969C30.1844 0.622772 30.6879 1.07717 30.9685 1.66721C31.2491 2.25725 31.2838 2.93459 31.065 3.55022C30.6822 4.61146 30.3449 5.57863 30.0357 6.46543Z" fill="white"/>
<path d="M23.0399 30.7448C22.8445 31.2853 22.5785 31.6461 22.2926 32.0339C21.8327 32.6578 21.3215 33.3513 20.9699 34.9748C20.8573 35.4968 20.7879 35.8458 20.6873 36.3513C20.5871 36.8554 20.4558 37.5154 20.2199 38.6573C20.2199 38.8562 20.1409 39.047 20.0003 39.1877C19.8596 39.3283 19.6688 39.4073 19.4699 39.4073C19.271 39.4073 19.0802 39.3283 18.9396 39.1877C18.7989 39.047 18.7199 38.8562 18.7199 38.6573L18.0749 36.0173C17.9832 35.6614 17.7757 35.3461 17.4851 35.121C17.1946 34.8959 16.8375 34.7737 16.4699 34.7737C16.1024 34.7737 15.7453 34.8959 15.4547 35.121C15.1642 35.3461 14.9567 35.6614 14.8649 36.0173L14.2499 38.6723C14.2122 38.838 14.1192 38.986 13.9864 39.092C13.8535 39.198 13.6886 39.2557 13.5187 39.2557C13.3487 39.2557 13.1838 39.198 13.051 39.092C12.9181 38.986 12.8252 38.838 12.7874 38.6723C12.5192 37.3828 12.3838 36.7075 12.2627 36.1035C12.1909 35.7452 12.124 35.4115 12.0374 34.9898C11.6928 33.341 11.1745 32.6467 10.7091 32.0232C10.4251 31.6427 10.1607 31.2885 9.96743 30.7598C9.77238 30.2205 9.70363 29.6436 9.76648 29.0735C9.82933 28.5035 10.0221 27.9554 10.33 27.4715C10.6378 26.9876 11.0526 26.5808 11.5423 26.2823C12.0321 25.9838 12.5838 25.8017 13.1549 25.7498C13.8928 25.6879 14.4436 25.8431 14.998 25.9993C15.8526 26.24 16.7156 26.4832 18.2849 25.9373C18.953 25.7066 19.6726 25.6694 20.3609 25.83C21.0492 25.9906 21.6781 26.3424 22.1752 26.8449C22.6722 27.3474 23.0171 27.9801 23.1701 28.6701C23.3231 29.3601 23.278 30.0793 23.0399 30.7448Z" fill="white"/>
<path fill-rule="evenodd" clip-rule="evenodd" d="M24.9686 18.4724C26.5965 19.9165 27.8277 21.7532 28.545 23.8077C28.7047 24.2884 28.7475 24.8002 28.67 25.3007C28.5925 25.8013 28.3968 26.2761 28.0991 26.6859C27.8015 27.0958 27.4104 27.4287 26.9584 27.6573C26.5064 27.8859 26.0065 28.0034 25.5 28.0002C25.5011 25.921 24.7822 23.9055 23.4656 22.2963C22.149 20.6871 20.3157 19.5834 18.2775 19.1727C17.689 19.6002 16.9653 19.7994 16.241 19.7332C15.5167 19.6669 14.8411 19.3398 14.34 18.8127C12.7466 18.5406 11.2194 17.9679 9.83997 17.1252C5.77887 14.663 4.61905 11.2954 2.89599 6.29249C2.5984 5.42844 2.28401 4.5156 1.93497 3.55022C1.82663 3.24539 1.77939 2.9222 1.79595 2.59911C1.81251 2.27603 1.89255 1.95937 2.03149 1.66721C2.17043 1.37505 2.36555 1.11312 2.60572 0.896376C2.84589 0.679629 3.12639 0.512308 3.43122 0.403968C3.73605 0.295627 4.05924 0.248388 4.38233 0.264949C4.70541 0.281509 5.02208 0.361543 5.31423 0.500483C5.60639 0.639423 5.86832 0.834546 6.08506 1.07471C6.30181 1.31488 6.46913 1.59539 6.57747 1.90022L9.51747 10.3002C9.89014 11.3681 10.5033 12.3361 11.3096 13.1294C12.1158 13.9226 13.0936 14.52 14.1675 14.8752C14.4914 14.4755 14.9127 14.1658 15.3908 13.9759C15.869 13.786 16.388 13.7223 16.8979 13.7908C17.4078 13.8593 17.8915 14.0579 18.3025 14.3673C18.7135 14.6767 19.0381 15.0867 19.245 15.5577C21.3703 16.0249 23.3407 17.0283 24.9686 18.4724ZM15.6666 17.9974C15.9133 18.1622 16.2033 18.2502 16.5 18.2502C16.8978 18.2502 17.2793 18.0922 17.5606 17.8109C17.8419 17.5296 18 17.148 18 16.7502C18 16.4535 17.912 16.1635 17.7472 15.9169C17.5824 15.6702 17.3481 15.4779 17.074 15.3644C16.7999 15.2509 16.4983 15.2212 16.2073 15.279C15.9164 15.3369 15.6491 15.4798 15.4393 15.6896C15.2295 15.8993 15.0867 16.1666 15.0288 16.4576C14.9709 16.7486 15.0006 17.0502 15.1142 17.3242C15.2277 17.5983 15.4199 17.8326 15.6666 17.9974Z" fill="white"/>
</svg>
