<svg width="39" height="38" viewBox="0 0 39 38" fill="none" xmlns="http://www.w3.org/2000/svg">
<path fill-rule="evenodd" clip-rule="evenodd" d="M15.645 0.857575C18.1427 1.7199 20.8574 1.7199 23.355 0.857575C31.83 -2.09742 40.3275 5.88258 37.83 14.5001H26.64C26.3999 14.5052 26.1613 14.4617 25.9384 14.3724C25.7155 14.2831 25.5129 14.1497 25.3427 13.9803C25.1725 13.8108 25.0383 13.6087 24.9481 13.3862C24.8578 13.1637 24.8134 12.9252 24.8175 12.6851C24.8274 11.9807 24.5577 11.301 24.0675 10.7951C23.2378 9.9896 22.6282 9.99592 19.5139 10.0282C18.7714 10.0359 17.8866 10.0451 16.8225 10.0451C16.1137 10.0451 15.4338 10.3261 14.9319 10.8266C14.43 11.3272 14.147 12.0063 14.145 12.7151C14.1457 12.9495 14.0996 13.1816 14.0095 13.398C13.9193 13.6143 13.7869 13.8105 13.62 13.9751C13.057 14.5497 12.9881 14.5494 7.50631 14.5198C5.90511 14.5112 3.84209 14.5001 1.17003 14.5001C-1.30497 5.95757 7.08753 -2.14242 15.645 0.857575ZM19.5 7.00007C22.5342 6.93347 25.5038 6.11116 28.14 4.60757V4.63007C28.2825 4.51565 28.3782 4.35317 28.4094 4.17314C28.4405 3.99311 28.4048 3.80791 28.3091 3.65231C28.2133 3.49671 28.0641 3.38141 27.8893 3.32806C27.7146 3.27472 27.5264 3.28699 27.36 3.36257C24.9532 4.7045 22.255 5.43826 19.5 5.50007C16.7353 5.44011 14.027 4.70638 11.61 3.36257C11.4427 3.29359 11.256 3.28746 11.0845 3.34532C10.913 3.40317 10.7682 3.52111 10.6768 3.67737C10.5854 3.83363 10.5536 4.01766 10.5873 4.19551C10.621 4.37337 10.7179 4.53304 10.86 4.64507C13.4997 6.13556 16.4691 6.94493 19.5 7.00007Z" fill="white"/>
<path d="M34.3162 20.2674C35.182 19.0873 35.9959 17.9779 36.4649 16H26.6399C25.7687 16 24.9331 15.6539 24.3171 15.0379C23.701 14.4218 23.3549 13.5863 23.3549 12.715C23.3559 12.5605 23.3261 12.4072 23.2672 12.2643C23.2083 12.1214 23.1215 11.9917 23.0118 11.8828C22.9022 11.7738 22.7719 11.6879 22.6286 11.6299C22.4854 11.5719 22.332 11.543 22.1774 11.545H16.8224C16.6681 11.544 16.5152 11.5736 16.3724 11.6319C16.2296 11.6903 16.0997 11.7763 15.9902 11.885C15.8808 11.9938 15.794 12.1231 15.7347 12.2655C15.6754 12.408 15.6449 12.5607 15.6449 12.715C15.6449 13.5863 15.2988 14.4218 14.6828 15.0379C14.0667 15.6539 13.2311 16 12.3599 16H2.53491C2.89849 17.5309 3.60931 18.9577 4.61241 20.17C6.87923 22.923 7.37583 25.49 8.51004 31.3529C8.72303 32.4538 8.95851 33.671 9.23241 35.0275C9.35361 35.6019 9.61903 36.1359 10.0037 36.5793C10.3883 37.0227 10.8795 37.3609 11.431 37.5619C11.9825 37.763 12.5761 37.8204 13.1558 37.7286C13.7356 37.6369 14.2825 37.399 14.7449 37.0375C15.7487 36.2501 15.9191 35.5253 16.7193 32.1222C16.9176 31.279 17.1546 30.2713 17.4524 29.0575C17.5631 28.608 17.8212 28.2086 18.1856 27.923C18.5499 27.6375 18.9995 27.4823 19.4624 27.4823C19.9253 27.4823 20.3749 27.6375 20.7393 27.923C21.1036 28.2086 21.3618 28.608 21.4724 29.0575L22.9724 35.14C23.1121 35.7043 23.3918 36.2243 23.7857 36.6519C24.1796 37.0795 24.6749 37.4009 25.2259 37.5863C25.7769 37.7717 26.3658 37.8152 26.9381 37.7127C27.5103 37.6102 28.0475 37.3651 28.4999 37C29.5596 36.139 29.6767 35.5439 30.6091 30.8064C30.8382 29.6427 31.1164 28.229 31.4699 26.5C32.1508 23.2188 33.2712 21.6916 34.3162 20.2674Z" fill="white"/>
</svg>
