<svg width="32" height="44" viewBox="0 0 32 44" fill="none" xmlns="http://www.w3.org/2000/svg">
<path d="M19.24 0.775035C14.4025 2.50004 12.88 -0.0874648 8.83004 0.287535C1.40504 0.977535 -2.46496 10.0375 2.40254 16.0375C3.31754 17.1775 4.00754 20.725 4.48754 22.1125C4.7111 22.7303 5.1184 23.2648 5.6547 23.6442C6.191 24.0237 6.8306 24.2298 7.48754 24.235H24.4825C25.1395 24.2298 25.7791 24.0237 26.3154 23.6442C26.8517 23.2648 27.259 22.7303 27.4825 22.1125C27.9625 20.725 28.6525 17.1775 29.5675 16.0375C35.59 8.59754 28.2175 -2.38246 19.24 0.775035ZM23.32 4.03754C21.0847 5.30382 18.5687 5.99213 16 6.04004C13.4314 5.99213 10.9154 5.30382 8.68004 4.03754C8.5442 3.92351 8.45317 3.76504 8.4231 3.59026C8.39303 3.41548 8.42587 3.23569 8.51579 3.08283C8.60571 2.92997 8.74689 2.81391 8.91426 2.75528C9.08164 2.69664 9.26438 2.69921 9.43004 2.76254C14.17 5.13254 17.77 5.13254 22.51 2.76254C22.5938 2.70935 22.6871 2.67317 22.7848 2.65608C22.8825 2.63898 22.9826 2.64129 23.0794 2.66288C23.1762 2.68447 23.2679 2.72491 23.349 2.7819C23.4302 2.8389 23.4994 2.91132 23.5525 2.99504C23.6057 3.07875 23.6419 3.17213 23.659 3.26982C23.6761 3.36752 23.6738 3.46763 23.6522 3.56444C23.6306 3.66124 23.5902 3.75285 23.5332 3.83402C23.4762 3.9152 23.4038 3.98435 23.32 4.03754ZM13.0375 43.75H19L19.915 42.0025L11.665 41.0275C12.0475 41.86 12.505 42.73 13.0375 43.75ZM24.3175 28L23.305 27.91L23.455 25.75H8.54504L8.59754 26.575L7.84754 26.5C7.64863 26.4821 7.45075 26.544 7.29744 26.672C7.14413 26.8 7.04794 26.9836 7.03004 27.1825C7.01214 27.3814 7.07398 27.5793 7.20198 27.7326C7.32997 27.8859 7.51363 27.9821 7.71254 28L24.2125 29.5C24.4115 29.514 24.6077 29.4483 24.7582 29.3175C24.9087 29.1867 25.0011 29.0014 25.015 28.8025C25.029 28.6036 24.9633 28.4073 24.8325 28.2568C24.7017 28.1063 24.5165 28.014 24.3175 28ZM24.3175 31.75L23.05 31.6375L23.1025 30.8875L8.80754 29.605L8.86004 30.355L7.81754 30.25C7.61863 30.2321 7.42075 30.294 7.26744 30.422C7.11413 30.55 7.01794 30.7336 7.00004 30.9325C6.98214 31.1314 7.04399 31.3293 7.17198 31.4826C7.29997 31.6359 7.48363 31.7321 7.68254 31.75L24.1825 33.25C24.3815 33.2679 24.5793 33.2061 24.7326 33.0781C24.886 32.9501 24.9821 32.7664 25 32.5675C25.0179 32.3686 24.9561 32.1707 24.8281 32.0174C24.7001 31.8641 24.5165 31.7679 24.3175 31.75ZM23.575 35.5L22.825 35.425L22.8775 34.63L9.07004 33.3775L9.11504 34.06L8.57504 34C8.37613 33.9801 8.17746 34.0401 8.02274 34.1667C7.86802 34.2933 7.76993 34.4761 7.75004 34.675C7.73015 34.874 7.79009 35.0726 7.91668 35.2273C8.04326 35.382 8.22613 35.4801 8.42504 35.5L23.425 37C23.624 37.0199 23.8226 36.96 23.9773 36.8334C24.1321 36.7068 24.2301 36.5239 24.25 36.325C24.2699 36.1261 24.21 35.9275 24.0834 35.7727C23.9568 35.618 23.774 35.5199 23.575 35.5ZM22.09 39.25L21.34 39.16L21.775 38.3275L9.55754 37.1125L9.92504 37.8625L9.34004 37.75C9.14113 37.7262 8.94088 37.7823 8.78335 37.9061C8.62582 38.0298 8.52391 38.2111 8.50004 38.41C8.47617 38.609 8.5323 38.8092 8.65607 38.9667C8.77984 39.1243 8.96113 39.2262 9.16004 39.25L21.91 40.75C22.109 40.7739 22.3092 40.7178 22.4667 40.594C22.6243 40.4702 22.7262 40.2889 22.75 40.09C22.7739 39.8911 22.7178 39.6909 22.594 39.5333C22.4702 39.3758 22.2889 39.2739 22.09 39.25Z" fill="white"/>
</svg>
