<svg width="40" height="32" viewBox="0 0 40 32" fill="none" xmlns="http://www.w3.org/2000/svg">
<path d="M39.2829 29.5969L38.0878 30.5978C37.1736 31.3625 35.8106 31.1586 35.1501 30.1895L32.0136 25.5897C31.8011 25.2781 31.8907 24.8551 32.2078 24.6511C33.037 24.1179 33.7958 23.4827 34.4666 22.7603C34.7234 22.4834 35.1563 22.469 35.4259 22.7336L39.4003 26.6334C40.2416 27.4589 40.1933 28.8356 39.2829 29.5969Z" fill="#225378"/>
<path fill-rule="evenodd" clip-rule="evenodd" d="M31.4418 3.13512C29.468 0.812044 25.6988 -0.175524 22.6809 0.0924945C21.3736 0.208502 20.1116 0.550276 18.9067 1.11223C18.4696 1.31608 18.3812 1.89737 18.7417 2.21781C19.0284 2.47289 19.3063 2.7377 19.5749 3.01178C19.8391 3.2818 19.8224 3.72016 19.5399 3.97268C19.2724 4.21203 18.8682 4.19578 18.619 3.94184C17.058 2.34873 15.1556 1.08848 13.0094 0.481605C9.20359 -0.614137 4.93879 0.516107 2.74956 2.51508C-0.0668836 5.08525 -0.295399 9.64865 0.216886 13.4317C0.887766 18.382 3.02208 24.0866 6.38814 29.9286C7.10653 31.1762 8.44912 31.9504 9.89089 31.9504C11.6885 31.9504 13.2886 30.7412 13.7812 29.0102C15.0587 24.5199 16.3805 24.1716 16.7555 24.1716C17.5306 24.1716 18.7957 25.4383 19.8124 29.0102C20.3049 30.742 21.905 31.9504 23.7027 31.9504C25.1444 31.9504 26.487 31.1762 27.2054 29.9286C27.7078 29.0574 28.1899 28.1747 28.6513 27.2811C28.9037 26.7919 28.4861 26.2246 27.944 26.32C25.0104 26.8363 21.8428 26.2355 19.1915 24.3592C12.4372 19.5729 12.6512 9.53473 19.5732 5.04117C22.8418 2.91477 27.013 2.54541 30.6591 4.17019C31.3023 4.45679 31.8978 3.67174 31.4418 3.13512ZM7.99825 9.1622H7.08152V10.0789C7.08152 10.2558 7.01128 10.4253 6.88625 10.5504C6.76122 10.6754 6.59164 10.7456 6.41481 10.7456C6.23799 10.7456 6.06841 10.6754 5.94338 10.5504C5.81834 10.4253 5.7481 10.2558 5.7481 10.0789V9.1622H4.83137C4.65455 9.1622 4.48497 9.09196 4.35993 8.96693C4.2349 8.84189 4.16466 8.67231 4.16466 8.49549C4.16466 8.31867 4.2349 8.14909 4.35993 8.02405C4.48497 7.89902 4.65455 7.82878 4.83137 7.82878H5.7481V6.91205C5.7481 6.73522 5.81834 6.56564 5.94338 6.44061C6.06841 6.31558 6.23799 6.24533 6.41481 6.24533C6.59164 6.24533 6.76122 6.31558 6.88625 6.44061C7.01128 6.56564 7.08152 6.73522 7.08152 6.91205V7.82878H7.99825C8.17508 7.82878 8.34466 7.89902 8.46969 8.02405C8.59472 8.14909 8.66497 8.31867 8.66497 8.49549C8.66497 8.67231 8.59472 8.84189 8.46969 8.96693C8.34466 9.09196 8.17508 9.1622 7.99825 9.1622ZM12.7486 18.9545H12.0402V19.6629C12.0402 19.8397 11.97 20.0093 11.8449 20.1344C11.7199 20.2594 11.5503 20.3296 11.3735 20.3296C11.1967 20.3296 11.0271 20.2594 10.9021 20.1344C10.777 20.0093 10.7068 19.8397 10.7068 19.6629V18.9545H9.99839C9.82157 18.9545 9.65199 18.8843 9.52696 18.7593C9.40192 18.6342 9.33168 18.4647 9.33168 18.2878C9.33168 18.111 9.40192 17.9414 9.52696 17.8164C9.65199 17.6914 9.82157 17.6211 9.99839 17.6211H10.7068V16.9127C10.7068 16.7359 10.777 16.5663 10.9021 16.4413C11.0271 16.3163 11.1967 16.246 11.3735 16.246C11.5503 16.246 11.7199 16.3163 11.8449 16.4413C11.97 16.5663 12.0402 16.7359 12.0402 16.9127V17.6211H12.7486C12.9254 17.6211 13.095 17.6914 13.22 17.8164C13.3451 17.9414 13.4153 18.111 13.4153 18.2878C13.4153 18.4647 13.3451 18.6342 13.22 18.7593C13.095 18.8843 12.9254 18.9545 12.7486 18.9545Z" fill="#225378"/>
<path d="M31.5831 14.8293C31.5831 17.9591 29.0459 20.4963 25.9161 20.4963C22.7863 20.4963 20.249 17.9591 20.249 14.8293C20.249 11.6995 22.7863 9.16223 25.9161 9.16223C29.0459 9.16223 31.5831 11.6995 31.5831 14.8293Z" fill="#225378"/>
<path fill-rule="evenodd" clip-rule="evenodd" d="M25.9162 4.49521C20.2183 4.49521 15.5821 9.13136 15.5821 14.8293C15.5821 20.5271 20.2183 25.1633 25.9162 25.1633C31.6141 25.1633 36.2502 20.5271 36.2502 14.8293C36.2502 9.13136 31.6141 4.49521 25.9162 4.49521ZM25.9162 21.8297C22.0559 21.8297 18.9157 18.6895 18.9157 14.8293C18.9157 10.969 22.0559 7.82877 25.9162 7.82877C29.7764 7.82877 32.9167 10.969 32.9167 14.8293C32.9167 18.6895 29.7764 21.8297 25.9162 21.8297Z" fill="#225378"/>
</svg>
