<svg width="41" height="39" viewBox="0 0 41 39" fill="none" xmlns="http://www.w3.org/2000/svg">
<path d="M27.5 18.8751C27.5 19.9851 28.4525 18.7176 9.49999 37.6251C9.32369 37.8014 9.1144 37.9413 8.88405 38.0367C8.6537 38.1321 8.40682 38.1812 8.15749 38.1812C7.90817 38.1812 7.66128 38.1321 7.43094 38.0367C7.20059 37.9413 6.99129 37.8014 6.81499 37.6251C6.63869 37.4488 6.49884 37.2395 6.40343 37.0092C6.30802 36.7789 6.25891 36.532 6.25891 36.2826C6.25891 36.0333 6.30802 35.7864 6.40343 35.5561C6.49884 35.3257 6.63869 35.1164 6.81499 34.9401C25.805 16.0101 24.5 17.0001 25.625 17.0001C26.1205 17.006 26.594 17.2054 26.9444 17.5558C27.2947 17.9062 27.4942 18.3797 27.5 18.8751ZM18.86 20.8251L16.1675 23.5176L12.125 19.4676C11.7689 19.1116 11.5689 18.6287 11.5689 18.1251C11.5689 17.6216 11.7689 17.1387 12.125 16.7826C12.481 16.4266 12.964 16.2266 13.4675 16.2266C13.971 16.2266 14.4539 16.4266 14.81 16.7826L18.86 20.8251ZM32.9675 37.6251C32.7913 37.8016 32.582 37.9415 32.3516 38.037C32.1213 38.1325 31.8744 38.1817 31.625 38.1817C31.3756 38.1817 31.1287 38.1325 30.8983 38.037C30.668 37.9415 30.4587 37.8016 30.2825 37.6251L20.9825 28.3326L23.675 25.6401L32.9675 34.9401C33.1439 35.1164 33.2839 35.3256 33.3794 35.556C33.4749 35.7864 33.524 36.0333 33.524 36.2826C33.524 36.532 33.4749 36.7789 33.3794 37.0093C33.2839 37.2396 33.1439 37.4489 32.9675 37.6251Z" fill="white"/>
<path d="M39.0774 8.34373C39.9217 5.19509 38.7834 2.15388 36.5349 1.55099C34.2865 0.948094 31.7793 3.01183 30.935 6.16046C30.0908 9.3091 31.2291 12.3503 33.4776 12.9532C35.726 13.5561 38.2332 11.4924 39.0774 8.34373Z" fill="white"/>
<path d="M31.76 13.805L28.505 17.06C28.2352 16.629 27.871 16.2648 27.44 15.995L30.6425 12.7925C30.9643 13.182 31.3407 13.523 31.76 13.805ZM11.6075 15.275C11.1848 15.5508 10.8287 15.9172 10.565 16.3475L4.68499 10.25H2.43499C2.08924 10.2495 1.74825 10.1694 1.4385 10.0158C1.12874 9.86217 0.85855 9.63925 0.648901 9.36431C0.439252 9.08937 0.295785 8.76982 0.229639 8.43046C0.163493 8.09109 0.176447 7.74105 0.267495 7.4075C0.267495 7.3325 0.147494 7.6925 2.77249 0.980002C3.02749 0.395002 3.43249 0.500002 4.99999 0.500002C5.19891 0.500002 5.38967 0.57902 5.53032 0.719672C5.67098 0.860325 5.74999 1.05109 5.74999 1.25C5.74999 1.44891 5.67098 1.63968 5.53032 1.78033C5.38967 1.92098 5.19891 2 4.99999 2H4.00999L1.75999 7.835C1.73486 7.94628 1.73545 8.06183 1.7617 8.17285C1.78796 8.28387 1.8392 8.38744 1.91152 8.47567C1.98385 8.56391 2.07534 8.63448 2.17905 8.68201C2.28276 8.72955 2.39594 8.7528 2.50999 8.75C5.29999 8.75 5.29249 8.675 5.58499 8.9825L11.6075 15.275Z" fill="white"/>
</svg>
