<svg width="20" height="19" viewBox="0 0 20 19" fill="none" xmlns="http://www.w3.org/2000/svg">
<path d="M8.50234 1.62234C9.02621 0.0100427 11.3072 0.0100443 11.831 1.62234L12.917 4.96454C13.1513 5.68558 13.8232 6.17376 14.5813 6.17376H18.0955C19.7908 6.17376 20.4957 8.34309 19.1242 9.33954L16.2811 11.4051C15.6678 11.8508 15.4111 12.6407 15.6454 13.3617L16.7313 16.7039C17.2552 18.3162 15.4099 19.6569 14.0384 18.6605L11.1953 16.5949C10.582 16.1492 9.75142 16.1492 9.13806 16.5949L6.29501 18.6605C4.92351 19.6569 3.07818 18.3162 3.60204 16.7039L4.68799 13.3617C4.92227 12.6407 4.66562 11.8508 4.05226 11.4051L1.20922 9.33954C-0.162284 8.34309 0.542575 6.17376 2.23784 6.17376H5.75204C6.51019 6.17376 7.18211 5.68558 7.41639 4.96454L8.50234 1.62234Z" fill="#F3AA42"/>
</svg>
