<svg width="24" height="24" viewBox="0 0 24 24" fill="none" xmlns="http://www.w3.org/2000/svg">
<path d="M20.4853 3.51457C18.2188 1.24807 15.2054 -0.00012207 12 -0.00012207C8.79469 -0.00012207 5.78123 1.24807 3.51469 3.51457C1.24819 5.78111 0 8.79457 0 11.9999C0 15.2052 1.24819 18.2186 3.51469 20.4852C5.78123 22.7517 8.79469 23.9999 12 23.9999C15.2054 23.9999 18.2188 22.7517 20.4853 20.4852C22.7518 18.2186 24 15.2052 24 11.9999C24 8.79457 22.7518 5.78111 20.4853 3.51457ZM15.586 17.2658L11.2174 12.2949V4.84282H12.7826V11.7048L16.7618 16.2325L15.586 17.2658Z" fill="#225378"/>
</svg>
