<svg width="36" height="36" viewBox="0 0 36 36" fill="none" xmlns="http://www.w3.org/2000/svg">
<rect width="36" height="36" rx="18" fill="#7C509A"/>
<path d="M23.6285 8.59133C20.1982 7.93623 16.6359 7.93623 13.2055 8.59133C11.6882 8.91888 9.77513 10.7531 9.44529 12.1944C8.85157 15.0113 8.85157 17.8937 9.44529 20.7106C9.8411 22.1518 11.7542 23.9861 13.2055 24.3136C13.2715 24.3136 13.3374 24.3792 13.3374 24.4447V28.5718C13.3374 28.7683 13.6013 28.8993 13.7332 28.7028L15.7123 26.672C15.7123 26.672 17.2955 25.0342 17.5594 24.7722C17.5594 24.7722 17.6254 24.7067 17.6914 24.7067C19.6704 24.7722 21.7154 24.5757 23.6945 24.2481C25.2118 23.9206 27.1249 22.0863 27.4547 20.6451C28.0484 17.8282 28.0484 14.9458 27.4547 12.1288C27.0589 10.7531 25.1458 8.91888 23.6285 8.59133ZM23.6945 20.9071C23.3647 21.5622 22.9689 22.0863 22.3092 22.4139C22.1113 22.4794 21.9134 22.5449 21.7154 22.6104C21.4516 22.5449 21.2537 22.4794 21.0558 22.4139C18.9448 21.5622 16.9657 20.3831 15.3825 18.6798C14.5249 17.6972 13.7992 16.5835 13.2055 15.4043C12.9416 14.8147 12.6777 14.2907 12.4798 13.7011C12.2819 13.177 12.6118 12.6529 12.9416 12.2599C13.2715 11.8668 13.6673 11.6048 14.1291 11.4082C14.4589 11.2117 14.7887 11.3427 15.0526 11.6048C15.5804 12.2599 16.1081 12.915 16.5039 13.6356C16.7678 14.0941 16.7018 14.6182 16.2401 14.9458C16.1081 15.0113 16.0421 15.0768 15.9102 15.2078C15.8442 15.2733 15.7123 15.3388 15.6463 15.4698C15.5144 15.6664 15.5144 15.8629 15.5804 16.0594C16.1081 17.5661 17.0976 18.7453 18.6149 19.4004C18.8788 19.5314 19.0767 19.5969 19.4065 19.5969C19.8683 19.5314 20.0662 19.0074 20.3961 18.7453C20.7259 18.4833 21.1217 18.4833 21.5175 18.6798C21.8474 18.8763 22.1772 19.1384 22.573 19.4004C22.9029 19.6625 23.2327 19.859 23.5626 20.121C23.7605 20.252 23.8264 20.5796 23.6945 20.9071ZM20.9238 15.9939C20.7919 15.9939 20.8579 15.9939 20.9238 15.9939C20.6599 15.9939 20.594 15.8629 20.528 15.6664C20.528 15.5354 20.528 15.3388 20.462 15.2078C20.3961 14.9458 20.2641 14.6837 20.0003 14.4872C19.8683 14.4217 19.7364 14.3562 19.6044 14.2907C19.4065 14.2252 19.2746 14.2252 19.0767 14.2252C18.8788 14.1596 18.8128 14.0286 18.8128 13.8321C18.8128 13.7011 19.0107 13.5701 19.1427 13.5701C20.1982 13.6356 20.9898 14.2252 21.1217 15.4698C21.1217 15.5353 21.1217 15.6664 21.1217 15.7319C21.1217 15.8629 21.0558 15.9939 20.9238 15.9939ZM20.2641 13.1115C19.9343 12.9805 19.6044 12.8495 19.2086 12.7839C19.0767 12.7839 18.8788 12.7184 18.7469 12.7184C18.549 12.7184 18.417 12.5874 18.483 12.3909C18.483 12.1944 18.6149 12.0633 18.8128 12.1288C19.4725 12.1944 20.0662 12.3254 20.6599 12.5874C21.8474 13.177 22.5071 14.1596 22.705 15.4698C22.705 15.5353 22.705 15.6009 22.705 15.6664C22.705 15.7974 22.705 15.9284 22.705 16.1249C22.705 16.1904 22.705 16.256 22.705 16.3215C22.639 16.5835 22.1772 16.649 22.1113 16.3215C22.1113 16.256 22.0453 16.1249 22.0453 16.0594C22.0453 15.4698 21.9134 14.8803 21.6495 14.3562C21.2537 13.7666 20.7919 13.3735 20.2641 13.1115ZM23.8264 17.0421C23.6285 17.0421 23.4966 16.8455 23.4966 16.649C23.4966 16.256 23.4306 15.8629 23.3647 15.4698C23.1008 13.3735 21.3856 11.6703 19.3406 11.3427C19.0107 11.2772 18.6809 11.2772 18.417 11.2117C18.2191 11.2117 17.9552 11.2117 17.8893 10.9497C17.8233 10.7531 18.0212 10.5566 18.2191 10.5566C18.2851 10.5566 18.351 10.5566 18.351 10.5566C18.483 10.5566 21.0558 10.6221 18.351 10.5566C21.1217 10.6221 23.4306 12.4564 23.8924 15.2078C23.9584 15.6664 24.0243 16.1249 24.0243 16.649C24.1563 16.8455 24.0243 17.0421 23.8264 17.0421Z" fill="white"/>
</svg>
