<svg width="70" height="69" viewBox="0 0 70 69" fill="none" xmlns="http://www.w3.org/2000/svg">
<path fill-rule="evenodd" clip-rule="evenodd" d="M36.5565 0.121885C45.4633 1.21241 51.8223 9.3461 50.7317 18.2529C49.7228 26.4911 42.6883 32.5498 34.5902 32.5501C33.9328 32.5502 33.2691 32.5102 32.6004 32.4284C30.1438 32.1276 27.7751 31.2651 25.712 29.9247L20.0962 32.3995C19.8995 32.4862 19.6814 32.5122 19.4698 32.4743C19.2582 32.4364 19.0628 32.3362 18.9084 32.1866C18.754 32.037 18.6478 31.8447 18.6033 31.6344C18.5588 31.4241 18.578 31.2053 18.6586 31.006L20.9912 25.2315C18.8633 22.0077 17.9537 18.1488 18.4252 14.2971C19.5158 5.39014 27.6487 -0.96945 36.5565 0.121885ZM32.8631 30.2833C33.4424 30.3542 34.019 30.3887 34.5885 30.3887C41.612 30.3893 47.7117 25.1351 48.5867 17.9905C49.0448 14.2487 48.0184 10.5525 45.6967 7.58267C43.3749 4.61297 40.0355 2.72515 36.2938 2.26687C28.5728 1.32168 21.5162 6.83549 20.5702 14.5598C20.1401 18.0723 21.0349 21.5921 23.0897 24.4705C23.1953 24.6185 23.2618 24.7906 23.2832 24.9711C23.3046 25.1515 23.2802 25.3345 23.2122 25.503L21.6585 29.3493L25.3873 27.7061C25.558 27.6308 25.7452 27.601 25.9308 27.6196C26.1164 27.6382 26.294 27.7046 26.4463 27.8122C28.3348 29.146 30.5536 30.0004 32.8631 30.2833ZM34.5606 17.7607C35.3811 17.7607 36.0463 17.0955 36.0463 16.275C36.0463 15.4545 35.3812 14.7893 34.5606 14.7893C33.7399 14.7893 33.0749 15.4545 33.0749 16.275C33.0749 17.0955 33.7401 17.7607 34.5606 17.7607ZM41.7999 17.7607C42.6204 17.7607 43.2856 17.0955 43.2856 16.275C43.2856 15.4545 42.6204 14.7893 41.7999 14.7893C40.9793 14.7893 40.3141 15.4545 40.3141 16.275C40.3141 17.0955 40.9793 17.7607 41.7999 17.7607ZM27.357 17.7607C28.1775 17.7607 28.8427 17.0955 28.8427 16.275C28.8427 15.4545 28.1775 14.7893 27.357 14.7893C26.5364 14.7893 25.8712 15.4545 25.8712 16.275C25.8712 17.0955 26.5364 17.7607 27.357 17.7607ZM21.1623 51.7092C23.013 52.2696 24.7609 53.1497 26.3444 54.3354C29.1708 56.4518 31.2995 59.4655 32.3386 62.8214C32.7845 64.2607 32.5304 65.7777 31.6417 66.9835C30.7528 68.1893 29.3786 68.8809 27.8717 68.8809H22.0743L22.0744 66.7201H27.8718C28.6849 66.7201 29.4251 66.3488 29.9023 65.7014C30.3793 65.0542 30.5151 64.2376 30.2745 63.4609C28.3648 57.2941 22.7404 53.1506 16.2784 53.15H16.2756C9.81348 53.1505 4.18905 57.2941 2.27935 63.4608C2.03893 64.2376 2.17467 65.0543 2.65173 65.7015C3.12892 66.3488 3.86881 66.7201 4.68204 66.7201H16.2769L16.2769 68.8809H4.68204C3.17511 68.8809 1.80108 68.1895 0.912211 66.9837C0.0234749 65.778 -0.23072 64.2609 0.215134 62.8215C1.25433 59.4654 3.38311 56.4517 6.20951 54.3353C7.79302 53.1496 9.54105 52.2695 11.3919 51.7091C8.89827 50.0994 7.2429 47.2981 7.2429 44.1158C7.2429 39.1343 11.2956 35.0816 16.2771 35.0816C21.2586 35.0816 25.3114 39.1343 25.3114 44.1158C25.3114 47.2982 23.6557 50.0995 21.1623 51.7092ZM16.2771 37.2428C12.4873 37.2428 9.40396 40.3261 9.40396 44.1159C9.40396 47.9052 12.4866 50.9881 16.2757 50.9889H16.2786C20.0677 50.9882 23.1503 47.9053 23.1503 44.1159C23.1503 40.3261 20.067 37.2428 16.2771 37.2428ZM62.9473 54.3354C65.7736 56.4517 67.9025 59.4655 68.9417 62.8215C69.3875 64.2611 69.1334 65.7781 68.2442 66.9836C67.3555 68.1893 65.9814 68.8809 64.4745 68.8809H41.2849C39.7779 68.8809 38.4039 68.1895 37.515 66.9837C36.6263 65.778 36.3721 64.2609 36.8179 62.8215C37.8571 59.4654 39.9859 56.4517 42.8123 54.3353C44.3958 53.1496 46.1439 52.2695 47.9947 51.7091C45.5011 50.0994 43.8457 47.2981 43.8457 44.1158C43.8457 39.1343 47.8984 35.0816 52.8799 35.0816C57.8614 35.0816 61.9141 39.1343 61.9141 44.1158C61.9141 47.2982 60.2586 50.0995 57.7651 51.7092C59.6159 52.2696 61.3638 53.1497 62.9473 54.3354ZM52.88 37.2428C49.0902 37.2428 46.0069 40.3261 46.0069 44.1159C46.0069 47.9052 49.0895 50.9881 52.8787 50.9889H52.8815C56.6705 50.9882 59.7531 47.9053 59.7531 44.1159C59.7531 40.3261 56.6698 37.2428 52.88 37.2428ZM64.4748 66.7201C65.2879 66.7201 66.0279 66.3488 66.5051 65.7015C66.9821 65.0543 67.1179 64.2376 66.8775 63.4608C64.9676 57.2941 59.3432 53.1506 52.8814 53.15H52.8785C46.4164 53.1505 40.792 57.2941 38.8823 63.4608C38.6419 64.2376 38.7776 65.0543 39.2547 65.7015C39.7319 66.3488 40.4718 66.7201 41.285 66.7201H64.4748Z" fill="#3E7CB1"/>
</svg>
