<svg width="61" height="60" viewBox="0 0 61 60" fill="none" xmlns="http://www.w3.org/2000/svg">
<path d="M0.5 30C0.5 13.4579 13.9579 0 30.5 0C47.0421 0 60.5 13.4579 60.5 30C60.5 46.5421 47.0421 60 30.5 60C23.6523 60 16.9552 57.6323 11.6423 53.3333C11.127 52.9162 11.0473 52.1607 11.4642 51.6456C11.8812 51.1303 12.6366 51.0509 13.1518 51.4675C18.0391 55.4221 24.2 57.6 30.5 57.6C45.7187 57.6 58.1 45.2187 58.1 30C58.1 14.7813 45.7187 2.4 30.5 2.4C15.2813 2.4 2.9 14.7813 2.9 30C2.9 36.3 5.07793 42.4613 9.03254 47.3484C9.44949 47.8637 9.3698 48.6193 8.85465 49.0362C8.33973 49.4531 7.58387 49.3734 7.16703 48.8583C2.86766 43.5451 0.5 36.8479 0.5 30Z" fill="#3E7CB1"/>
<path d="M42.3474 11.4593C42.9054 11.8166 43.0682 12.5588 42.7109 13.1169C42.3534 13.6753 41.6112 13.8379 41.0533 13.4806C37.9054 11.4652 34.2563 10.4 30.5 10.4C19.6925 10.4 10.9 19.1925 10.9 30C10.9 40.8075 19.6925 49.5999 30.5 49.5999C41.3075 49.5999 50.0999 40.8075 50.0999 30C50.0999 25.4302 48.4935 20.9823 45.5767 17.4752C45.1529 16.9655 45.2222 16.2089 45.7319 15.7852C46.2414 15.3614 46.998 15.4307 47.4218 15.9404C50.6965 19.8775 52.4999 24.8707 52.4999 30C52.4999 42.1309 42.6309 51.9999 30.5 51.9999C18.3691 51.9999 8.5 42.1309 8.5 30C8.5 17.8691 18.3691 8 30.5 8C34.7158 8 38.8124 9.19625 42.3474 11.4593Z" fill="#3E7CB1"/>
<path fill-rule="evenodd" clip-rule="evenodd" d="M20.5 36C20.5 35.7348 20.6054 35.4804 20.7929 35.2929C20.9804 35.1054 21.2348 35 21.5 35H24.5V33H21.5C21.2348 33 20.9804 32.8946 20.7929 32.7071C20.6054 32.5196 20.5 32.2652 20.5 32C20.5 31.7348 20.6054 31.4804 20.7929 31.2929C20.9804 31.1054 21.2348 31 21.5 31H24.5V19C24.5 18.7348 24.6054 18.4804 24.7929 18.2929C24.9804 18.1054 25.2348 18 25.5 18H33C34.9891 18 36.8968 18.7902 38.3033 20.1967C39.7098 21.6032 40.5 23.5109 40.5 25.5C40.5 27.4891 39.7098 29.3968 38.3033 30.8033C36.8968 32.2098 34.9891 33 33 33H26.5V35H32.5C32.7652 35 33.0196 35.1054 33.2071 35.2929C33.3946 35.4804 33.5 35.7348 33.5 36C33.5 36.2652 33.3946 36.5196 33.2071 36.7071C33.0196 36.8946 32.7652 37 32.5 37H26.5V41C26.5 41.2652 26.3946 41.5196 26.2071 41.7071C26.0196 41.8946 25.7652 42 25.5 42C25.2348 42 24.9804 41.8946 24.7929 41.7071C24.6054 41.5196 24.5 41.2652 24.5 41V37H21.5C21.2348 37 20.9804 36.8946 20.7929 36.7071C20.6054 36.5196 20.5 36.2652 20.5 36ZM33 31H26.5V20H33C34.4587 20 35.8576 20.5795 36.8891 21.6109C37.9205 22.6424 38.5 24.0413 38.5 25.5C38.5 26.9587 37.9205 28.3576 36.8891 29.3891C35.8576 30.4205 34.4587 31 33 31Z" fill="#3E7CB1"/>
</svg>
