<svg width="57" height="60" viewBox="0 0 57 60" fill="none" xmlns="http://www.w3.org/2000/svg">
<path d="M56.3221 1.206C56.298 0.807786 56.008 0.473322 55.6164 0.395038C52.9831 -0.131972 50.3127 -0.131621 47.6793 0.395741C47.2889 0.473908 47.0014 0.806848 46.9774 1.20389C46.9729 1.2796 46.9692 1.35542 46.9655 1.43124C46.9624 1.50888 46.9551 1.5863 46.9438 1.66317C46.7478 2.91383 45.6623 3.87375 44.3562 3.87375C43.3999 3.87375 42.5619 3.35916 42.1047 2.59261C41.9036 2.25557 41.7948 1.87165 41.7605 1.48082C41.7514 1.37839 41.7423 1.27608 41.7325 1.17377C41.7137 0.975072 41.6277 0.788692 41.4887 0.645332C41.3497 0.501972 41.1659 0.410181 40.9677 0.385076C36.9306 -0.128125 32.8446 -0.128203 28.8074 0.384842C28.6089 0.409843 28.4249 0.501581 28.2855 0.644966C28.1461 0.788351 28.0598 0.974845 28.0406 1.17377C28.0006 1.59916 27.9643 2.0249 27.9317 2.45093C27.8155 2.45151 27.6983 2.45069 27.5841 2.45386C24.9164 2.52534 22.2951 3.26259 20.0008 4.58639C19.6041 4.81526 19.4215 5.30805 19.6112 5.72455C19.6618 5.83675 19.7354 5.93709 19.8272 6.01907C19.9191 6.10105 20.0272 6.16284 20.1445 6.20045C20.2618 6.23805 20.3857 6.25063 20.5081 6.23737C20.6306 6.22411 20.7489 6.18531 20.8554 6.12347C22.9027 4.93632 25.2459 4.27501 27.6321 4.21102C27.6927 4.20938 27.7554 4.21032 27.8168 4.2095C27.6809 6.74902 27.676 9.29384 27.8021 11.8339C24.1993 11.9342 20.6962 12.6749 17.3892 14.0362C16.6291 14.3495 15.9669 14.0315 15.6009 13.6297C15.2389 13.2321 14.9874 12.5515 15.3671 11.8332C16.0999 10.4435 17.0571 9.184 18.2001 8.1053C18.5483 7.77634 18.5991 7.22214 18.2828 6.8626C18.2048 6.77389 18.1098 6.70177 18.0034 6.65053C17.897 6.59928 17.7813 6.56997 17.6633 6.56434C17.5453 6.55871 17.4274 6.57687 17.3166 6.61774C17.2057 6.65862 17.1043 6.72136 17.0183 6.80224C15.7231 8.01887 14.6391 9.44176 13.8104 11.0129C13.1475 12.2671 13.3393 13.7585 14.299 14.8124C14.9562 15.5342 15.8509 15.9188 16.7718 15.9188C17.2026 15.9188 17.6392 15.8345 18.0599 15.6613C21.1863 14.3743 24.5002 13.677 27.9102 13.589L27.9103 13.5892C27.9482 14.1085 27.9917 14.6275 28.0407 15.1459C28.0796 15.5542 28.3956 15.8825 28.803 15.9343C29.1873 15.9831 29.5724 16.0259 29.9577 16.0655V23.5136C28.2248 22.9407 26.3105 23.1379 24.6991 24.1087L12.7854 31.2862C12.1015 30.4353 11.0524 29.8891 9.87753 29.8891H4.25965C2.20052 29.8891 0.53125 31.5565 0.53125 33.6133V56.2758C0.53125 58.3326 2.20052 60 4.25965 60H9.87765C10.9371 60 11.894 59.5556 12.5734 58.8445C12.6229 58.8532 12.6736 58.8586 12.7254 58.8586H38.9512C39.433 58.8586 39.8531 58.4878 39.8676 58.0067C39.8712 57.889 39.8511 57.7719 39.8086 57.6621C39.766 57.5523 39.7018 57.4522 39.6197 57.3677C39.5377 57.2832 39.4395 57.2161 39.331 57.1702C39.2225 57.1243 39.1058 57.1007 38.988 57.1007H13.6052V56.3028C13.6052 56.2938 13.6059 56.2848 13.6059 56.2758V33.6133C13.6059 33.6058 13.6055 33.5983 13.6053 33.5908V32.845L25.608 25.614C26.9463 24.8076 28.573 24.7417 29.9577 25.4086V28.029H27.5706C27.0888 28.029 26.6686 28.3998 26.6542 28.8809C26.6506 28.9985 26.6706 29.1157 26.7132 29.2255C26.7558 29.3352 26.82 29.4353 26.902 29.5198C26.9841 29.6043 27.0823 29.6715 27.1908 29.7174C27.2993 29.7633 27.4159 29.7869 27.5338 29.7869H42.0536C42.7898 29.7869 43.483 30.0735 44.0044 30.5935C44.2612 30.8486 44.4648 31.1521 44.6035 31.4864C44.7421 31.8206 44.813 32.1791 44.812 32.5409C44.812 34.0529 43.5862 35.2844 42.0751 35.2961C41.6709 35.2991 41.3024 35.5535 41.2029 35.9448C41.0543 36.5296 41.4926 37.054 42.0536 37.054H43.2969C44.8403 37.054 46.1437 38.3156 46.1173 39.857C46.0917 41.3548 44.8643 42.5655 43.3596 42.5655H42.0905C41.6086 42.5655 41.1885 42.9363 41.1741 43.4174C41.1704 43.5351 41.1905 43.6522 41.2331 43.762C41.2756 43.8718 41.3399 43.9719 41.4219 44.0564C41.5039 44.1409 41.6021 44.208 41.7106 44.2539C41.8192 44.2998 41.9358 44.3234 42.0536 44.3234C42.7908 44.3234 43.4836 44.6098 44.005 45.1306C44.5219 45.6462 44.8081 46.3322 44.812 47.0638C44.82 48.5875 43.5082 49.8338 41.9827 49.8338H40.7848C40.3029 49.8338 39.8828 50.2046 39.8684 50.6856C39.8648 50.8033 39.8848 50.9205 39.9274 51.0302C39.97 51.14 40.0342 51.2401 40.1162 51.3246C40.1982 51.4091 40.2964 51.4763 40.405 51.5221C40.5135 51.568 40.6301 51.5916 40.748 51.5916C41.4842 51.5916 42.1773 51.8783 42.6993 52.3988C43.2197 52.9179 43.5063 53.6093 43.5063 54.3456C43.5066 54.8393 43.3741 55.3239 43.1227 55.7489C42.8712 56.1738 42.51 56.5235 42.0769 56.7612C41.6755 56.9822 41.4673 57.4581 41.6393 57.8825C41.6852 57.9971 41.7549 58.1008 41.8437 58.1867C41.9324 58.2727 42.0383 58.339 42.1545 58.3813C42.2706 58.4236 42.3944 58.441 42.5177 58.4324C42.641 58.4238 42.7611 58.3893 42.8702 58.3312C44.348 57.544 45.2661 56.0169 45.2661 54.3457C45.2661 53.1468 44.8019 52.0202 43.9584 51.1708C45.5006 50.4517 46.5717 48.8878 46.5717 47.0787C46.5717 45.8787 46.1074 44.7514 45.2641 43.9025C46.8063 43.1833 47.8775 41.6189 47.8775 39.8092C47.8775 37.9991 46.8052 36.4344 45.2616 35.7159C46.0711 34.8999 46.5717 33.7778 46.5717 32.541C46.5717 31.3359 46.1019 30.2029 45.2482 29.3501C44.3939 28.4982 43.2594 28.0291 42.0536 28.0291H39.8152V16.0658C40.2009 16.0261 40.5862 15.9834 40.971 15.9344C41.3782 15.8826 41.6938 15.5543 41.7326 15.146C41.7424 15.0437 41.7515 14.9414 41.7606 14.8391C41.7949 14.4483 41.9037 14.0644 42.1048 13.7273C42.562 12.9608 43.3999 12.4462 44.3563 12.4462C45.6625 12.4462 46.748 13.4061 46.9439 14.6568C46.9559 14.7334 46.9616 14.8111 46.9656 14.8887C46.9695 14.9645 46.973 15.0403 46.9776 15.1159C47.0015 15.5128 47.289 15.8458 47.6794 15.924C48.9865 16.1867 50.3165 16.3193 51.6498 16.3198C52.9751 16.3198 54.3004 16.1881 55.6165 15.9248C56.0081 15.8464 56.298 15.512 56.3222 15.1139C56.601 10.4821 56.6009 5.83779 56.3221 1.206ZM9.87765 58.2424H4.25965C3.17418 58.2424 2.29109 57.3603 2.29109 56.276V33.6135C2.29109 32.5293 3.17418 31.6472 4.25965 31.6472H9.87765C10.9592 31.6472 11.8395 32.5233 11.8456 33.6023L11.8455 56.2896C11.8381 57.3675 10.9585 58.2424 9.87765 58.2424ZM29.7292 2.04498C33.1569 1.66211 36.6166 1.66211 40.0443 2.04498C40.39 6.11424 40.39 10.2055 40.0443 14.2747C36.6166 14.6576 33.1569 14.6576 29.7292 14.2747C29.3835 10.2055 29.3835 6.11424 29.7292 2.04498ZM38.0555 28.0292H31.7176V16.2147C32.7726 16.2844 33.8295 16.3195 34.8867 16.3197C35.9437 16.3197 37.0005 16.2842 38.0555 16.2147V28.0292ZM44.3563 10.6883C43.5177 10.6876 42.6967 10.929 41.9922 11.3834C42.0857 9.23545 42.0857 7.08448 41.9922 4.93656C42.6967 5.39095 43.5177 5.63232 44.3563 5.63162C45.2339 5.63257 46.0913 5.3686 46.8161 4.87433C46.7541 7.06435 46.7541 9.25569 46.8161 11.4457C46.0914 10.9513 45.234 10.6873 44.3563 10.6883ZM54.6047 14.3219C52.6477 14.6418 50.6517 14.6418 48.6947 14.3219C48.4725 10.2169 48.4725 6.10289 48.6947 1.99786C50.6517 1.67805 52.6477 1.67805 54.6047 1.99786C54.8269 6.10289 54.8269 10.2169 54.6047 14.3219Z" fill="#3E7CB1"/>
</svg>
