<svg width="61" height="60" viewBox="0 0 61 60" fill="none" xmlns="http://www.w3.org/2000/svg">
<path d="M8.72361 13.7944C9.00783 13.7944 9.28042 13.6815 9.48139 13.4805C9.68237 13.2795 9.79528 13.0069 9.79528 12.7226C9.79499 11.8119 10.1559 10.9382 10.7987 10.2932C11.4416 9.64825 12.314 9.2846 13.2246 9.28205H19.6118C20.3434 9.28406 21.0682 9.14102 21.7442 8.8612C22.4202 8.58138 23.034 8.17033 23.5502 7.65181L28.0759 3.14803C28.7293 2.52364 29.5984 2.17538 30.5021 2.17578C31.4058 2.17618 32.2745 2.5252 32.9274 3.15017C33.7104 3.92955 34.3805 4.61133 34.9666 5.20759C37.0255 7.30246 38.0469 8.34177 39.2862 8.84913C40.5063 9.34868 41.9376 9.33255 44.7781 9.30055C45.6373 9.29087 46.6253 9.27973 47.7754 9.28098C48.686 9.28353 49.5584 9.64718 50.2013 10.2922C50.8442 10.9371 51.2051 11.8108 51.2048 12.7215V19.1213C51.2029 19.8541 51.3464 20.5799 51.6269 21.2567C51.9074 21.9336 52.3195 22.5481 52.8391 23.0646L57.3594 27.5641C58.0003 28.2124 58.3599 29.0871 58.3603 29.9988C58.3607 30.9105 58.0019 31.7855 57.3616 32.4344L52.837 36.9382C52.3179 37.4545 51.9063 38.0687 51.6262 38.7452C51.346 39.4217 51.2028 40.1471 51.2048 40.8793V47.2673C51.2065 48.1795 50.8464 49.055 50.2035 49.702C49.5607 50.349 48.6875 50.7146 47.7754 50.7186H46.7466C46.4624 50.7186 46.1898 50.8315 45.9888 51.0325C45.7879 51.2335 45.675 51.5061 45.675 51.7904C45.675 52.0747 45.7879 52.3473 45.9888 52.5483C46.1898 52.7493 46.4624 52.8622 46.7466 52.8622C47.5571 52.9847 48.3844 52.9322 49.1729 52.7084C49.9614 52.4846 50.6929 52.0946 51.3182 51.5646C51.9435 51.0346 52.4482 50.377 52.7983 49.6358C53.1485 48.8946 53.3359 48.087 53.3481 47.2673V40.8793C53.3508 39.9715 53.7108 39.1013 54.3502 38.457L58.878 33.9478C59.9181 32.8957 60.501 31.4755 60.5 29.996C60.499 28.5164 59.9142 27.0971 58.8726 26.0464L54.3523 21.5469C53.7116 20.902 53.3508 20.0305 53.3481 19.1213V12.7226C53.3479 11.2435 52.761 9.82494 51.7163 8.77808C50.6716 7.73121 49.2543 7.14153 47.7754 7.13841H41.3883C40.9371 7.13934 40.4903 7.05078 40.0737 6.87784C39.657 6.7049 39.2788 6.45102 38.9609 6.1309L34.4417 1.63355C33.397 0.588195 31.98 0.000603921 30.5023 4.63839e-07C29.0246 -0.000602064 27.6071 0.585833 26.5616 1.63033L22.037 6.13412C21.7192 6.45349 21.3412 6.70669 20.9249 6.87907C20.5087 7.05146 20.0624 7.1396 19.6118 7.13841H13.2246C11.7458 7.14153 10.3285 7.73121 9.2838 8.77808C8.23908 9.82494 7.65221 11.2435 7.65193 12.7226C7.65193 13.0069 7.76484 13.2795 7.96582 13.4805C8.16679 13.6815 8.43938 13.7944 8.72361 13.7944Z" fill="#3E7CB1"/>
<path d="M6.64777 38.4538C7.28849 39.0987 7.64928 39.9701 7.65193 40.8793V47.2673C7.65079 48.7478 8.23686 50.1683 9.28158 51.2172C10.3263 52.2661 11.7443 52.8577 13.2246 52.8622H19.6118C20.5203 52.8598 21.3927 53.2174 22.0381 53.8569L26.5606 58.3681C27.6054 59.413 29.0225 60 30.5 60C31.9776 60 33.3946 59.413 34.4395 58.3681L38.9588 53.8611C39.6045 53.2197 40.4781 52.8604 41.3883 52.8622C41.6725 52.8622 41.9451 52.7493 42.146 52.5483C42.347 52.3473 42.4599 52.0747 42.4599 51.7904C42.1663 49.5235 38.3683 51.2931 37.4488 52.3392L32.9252 56.8515C32.2811 57.4934 31.4088 57.8538 30.4995 57.8538C29.5902 57.8538 28.7179 57.4934 28.0738 56.8515L23.547 52.3349C22.5007 51.2967 21.0857 50.7155 19.6118 50.7186H13.2246C12.3126 50.7146 11.4394 50.349 10.7965 49.702C10.1536 49.055 9.79357 48.1795 9.79528 47.2673V40.8793C9.79717 40.1466 9.6537 39.4208 9.37317 38.7439C9.09263 38.067 8.68062 37.4526 8.16098 36.9361L3.64494 32.4408C3.0026 31.7926 2.64178 30.9172 2.64077 30.0046C2.63977 29.092 2.99867 28.2158 3.63958 27.5662L8.16312 23.0624C8.68221 22.5461 9.09375 21.9319 9.37391 21.2554C9.65407 20.5789 9.79729 19.8536 9.79528 19.1213V18.0817C9.79528 17.7974 9.68237 17.5248 9.48139 17.3238C9.28042 17.1228 9.00783 17.0099 8.72361 17.0099C8.43938 17.0099 8.16679 17.1228 7.96582 17.3238C7.76484 17.5248 7.65193 17.7974 7.65193 18.0817V19.1213C7.64923 20.0291 7.28926 20.8993 6.64991 21.5437L2.1253 26.0485C1.08372 27.1005 0.499599 28.5213 0.5 30.0018C0.500402 31.4823 1.08529 32.9028 2.12745 33.9543L6.64777 38.4538Z" fill="#3E7CB1"/>
<path d="M37.6329 23.9806L27.8699 33.7448L23.3689 29.2421C23.1668 29.0469 22.8961 28.9388 22.6151 28.9413C22.3341 28.9437 22.0653 29.0564 21.8666 29.2552C21.6679 29.4539 21.5552 29.7227 21.5528 30.0037C21.5503 30.2848 21.6584 30.5555 21.8536 30.7577L27.1133 36.0192C27.3151 36.2186 27.5874 36.3304 27.871 36.3304C28.1547 36.3304 28.4269 36.2186 28.6287 36.0192L39.1483 25.4961C39.3435 25.294 39.4515 25.0232 39.4491 24.7422C39.4466 24.4612 39.3339 24.1923 39.1352 23.9936C38.9365 23.7949 38.6677 23.6822 38.3867 23.6797C38.1057 23.6773 37.835 23.7853 37.6329 23.9806Z" fill="#3E7CB1"/>
<path d="M42.9368 18.6326C42.9368 18.9166 42.8241 19.1889 42.6235 19.3899C42.4226 19.5905 42.1503 19.7031 41.8664 19.7031C41.5825 19.7031 41.3102 19.5905 41.1093 19.3899C39.7191 17.9922 38.0657 16.8842 36.2445 16.1299C34.4234 15.3756 32.4708 14.99 30.4997 14.9954C17.2302 14.9343 10.4915 31.2656 19.888 40.6151C32.029 52.3204 51.0951 38.7523 44.0039 23.4585C43.8935 23.2048 43.8856 22.9183 43.9815 22.6589C44.0775 22.3995 44.2701 22.1873 44.5189 22.0666C44.7678 21.9459 45.0537 21.9261 45.3168 22.0113C45.5799 22.0965 45.7999 22.2802 45.9307 22.5239C54.0026 40.047 32.3065 55.4909 18.3726 42.1306C7.63014 31.4478 15.3376 12.7821 30.4997 12.8518C32.7523 12.8458 34.9837 13.2867 37.0647 14.149C39.1458 15.0113 41.0352 16.2779 42.6235 17.8754C42.8241 18.0763 42.9368 18.3487 42.9368 18.6326Z" fill="#3E7CB1"/>
</svg>
