<svg width="51" height="51" viewBox="0 0 51 51" fill="none" xmlns="http://www.w3.org/2000/svg">
<path d="M17.7411 32.153H2.48608C1.87632 32.153 1.37743 32.6519 1.37743 33.2616C1.37743 33.8714 1.87632 34.3703 2.48608 34.3703H15.0692L0.324217 49.1042C0.221442 49.2068 0.139904 49.3286 0.0842701 49.4627C0.0286366 49.5968 0 49.7406 0 49.8858C0 50.031 0.0286366 50.1748 0.0842701 50.3089C0.139904 50.443 0.221442 50.5648 0.324217 50.6674C0.545947 50.8891 0.823109 51 1.11136 51C1.39961 51 1.67677 50.8891 1.8985 50.6785L16.6324 35.9335V48.5166C16.6324 49.1264 17.1313 49.6253 17.7411 49.6253C18.3508 49.6253 18.8497 49.1264 18.8497 48.5166V33.2616C18.8497 32.6519 18.3508 32.153 17.7411 32.153ZM33.2621 18.8492H48.5171C49.1269 18.8492 49.6257 18.3503 49.6257 17.7406C49.6257 17.1308 49.1269 16.6319 48.5171 16.6319H35.934L50.6679 1.89803C50.7705 1.79539 50.8519 1.67353 50.9075 1.53943C50.963 1.40532 50.9916 1.26159 50.9916 1.11643C50.9916 0.971275 50.963 0.82754 50.9075 0.693434C50.8519 0.559328 50.7705 0.437475 50.6679 0.334835C50.5652 0.232194 50.4434 0.150774 50.3093 0.0952257C50.1752 0.039677 50.0314 0.0110867 49.8863 0.0110867C49.7411 0.0110867 49.5974 0.039677 49.4633 0.0952257C49.3292 0.150774 49.2073 0.232194 49.1047 0.334835L34.3708 15.0688V2.48561C34.3708 1.87585 33.8719 1.37696 33.2621 1.37696C32.6524 1.37696 32.1535 1.87585 32.1535 2.48561V17.7406C32.1535 18.3503 32.6524 18.8492 33.2621 18.8492ZM17.7411 1.36588C17.1313 1.36588 16.6324 1.86477 16.6324 2.47452V15.0577L1.8985 0.323748C1.79586 0.221107 1.674 0.139689 1.5399 0.08414C1.40579 0.0285913 1.26206 1.0815e-09 1.1169 0C0.971744 -1.08149e-09 0.82801 0.0285913 0.693904 0.08414C0.559797 0.139689 0.437945 0.221107 0.335304 0.323748C0.232663 0.426389 0.151244 0.548241 0.0956952 0.682347C0.0401464 0.816454 0.0115562 0.960188 0.0115562 1.10534C0.0115562 1.2505 0.0401464 1.39423 0.0956952 1.52834C0.151244 1.66245 0.232663 1.7843 0.335304 1.88694L15.0692 16.6319H2.47499C1.86524 16.6319 1.36635 17.1308 1.36635 17.7406C1.36635 18.3503 1.86524 18.8492 2.47499 18.8492H17.7411C18.3508 18.8492 18.8497 18.3503 18.8497 17.7406V2.47452C18.8497 1.86477 18.3508 1.36588 17.7411 1.36588ZM35.934 34.3703H48.5171C49.1269 34.3703 49.6257 33.8714 49.6257 33.2616C49.6257 32.6519 49.1269 32.153 48.5171 32.153H33.2621C32.6524 32.153 32.1535 32.6519 32.1535 33.2616V48.5166C32.1535 49.1264 32.6524 49.6253 33.2621 49.6253C33.8719 49.6253 34.3708 49.1264 34.3708 48.5166V35.9335L49.1047 50.6674C49.3264 50.8891 49.6036 51 49.8918 51C50.1801 51 50.4572 50.8891 50.679 50.6785C50.7817 50.5759 50.8633 50.4541 50.9189 50.32C50.9745 50.1859 51.0032 50.0421 51.0032 49.8969C51.0032 49.7517 50.9745 49.6079 50.9189 49.4738C50.8633 49.3397 50.7817 49.2179 50.679 49.1153L35.934 34.3703Z" fill="#3E7CB1"/>
</svg>
