<svg width="57" height="60" viewBox="0 0 57 60" fill="none" xmlns="http://www.w3.org/2000/svg">
<path d="M5.4914 40.0789L9.47201 42.0089C9.57551 42.059 9.66814 42.1292 9.74463 42.2153C9.82112 42.3015 9.87996 42.4019 9.9178 42.5109C9.95563 42.6199 9.97172 42.7353 9.96515 42.8505C9.95857 42.9657 9.92946 43.0785 9.87947 43.1825C9.8079 43.3315 9.69592 43.4571 9.55641 43.5451C9.4169 43.633 9.25551 43.6796 9.09081 43.6795C8.95924 43.6794 8.82939 43.6495 8.71101 43.5918L4.7304 41.6619C4.52139 41.5605 4.36103 41.3799 4.28459 41.1598C4.20816 40.9397 4.22191 40.6981 4.32283 40.4882C4.42374 40.2783 4.60355 40.1173 4.8227 40.0405C5.04185 39.9637 5.28239 39.9775 5.4914 40.0789Z" fill="#3E7CB1"/>
<path d="M5.49688 35.9103L13.1355 39.6139C13.3142 39.7003 13.4584 39.8452 13.5443 40.0247C13.6303 40.2043 13.653 40.4078 13.6087 40.602C13.5645 40.7962 13.4558 40.9695 13.3006 41.0935C13.1453 41.2175 12.9528 41.2849 12.7544 41.2846C12.6228 41.2845 12.493 41.2546 12.3746 41.197L4.736 37.4934C4.53026 37.3901 4.37329 37.2096 4.29903 36.9909C4.22477 36.7723 4.2392 36.5331 4.33919 36.325C4.43918 36.117 4.6167 35.9568 4.83335 35.8792C5.05 35.8016 5.28837 35.8128 5.49688 35.9103Z" fill="#3E7CB1"/>
<path fill-rule="evenodd" clip-rule="evenodd" d="M28.8805 0.0873603L56.0054 13.2388C56.1536 13.3107 56.2786 13.4232 56.3661 13.5632C56.4536 13.7032 56.5 13.8651 56.5 14.0304V45.9697C56.5 46.1349 56.4536 46.2969 56.3661 46.4369C56.2786 46.5769 56.1536 46.6893 56.0054 46.7611L28.8805 59.9126C28.7618 59.9701 28.6318 60 28.5 60C28.3682 60 28.2382 59.9701 28.1195 59.9126L0.994616 46.7611C0.846409 46.6893 0.721385 46.5769 0.633896 46.4369C0.546407 46.2969 0.5 46.1349 0.5 45.9697V14.0303C0.5 13.865 0.546407 13.7031 0.633896 13.5631C0.721385 13.4231 0.846409 13.3107 0.994616 13.2388L28.1196 0.0873603C28.2383 0.029862 28.3683 0 28.5001 0C28.6318 0 28.7618 0.029862 28.8805 0.0873603ZM53.612 14.0303L28.5 1.8549L21.2429 5.37345L46.1844 17.466C46.2368 17.4922 46.2864 17.5236 46.3325 17.5598L53.612 14.0303ZM44.3421 18.5249L19.2666 6.3672L14.1412 8.86224L39.2063 21.0151L44.3421 18.5249ZM44.9287 29.3969V20.1923L40.1316 22.5182V31.7228L44.9287 29.3969ZM29.3751 57.7208L54.7498 45.4182V15.4307L46.679 19.3438V29.9487C46.679 30.114 46.6326 30.276 46.5451 30.416C46.4576 30.556 46.3326 30.6684 46.1844 30.7402L39.637 33.9147C39.5036 33.9793 39.356 34.0089 39.2081 34.0006C39.0602 33.9924 38.9168 33.9466 38.7914 33.8675C38.6659 33.7884 38.5625 33.6786 38.4908 33.5485C38.4191 33.4183 38.3814 33.272 38.3813 33.1232V22.5765C38.3796 22.5741 38.3778 22.5719 38.376 22.5697C38.3737 22.5669 38.3714 22.564 38.3692 22.561L12.0814 9.81533L3.388 14.0303L22.3337 23.2162C22.5123 23.3027 22.6564 23.4475 22.7424 23.627C22.8283 23.8065 22.851 24.01 22.8067 24.2042C22.7624 24.3983 22.6538 24.5716 22.4986 24.6956C22.3434 24.8196 22.1509 24.8871 21.9526 24.8868C21.821 24.8868 21.6912 24.8568 21.5728 24.7992L2.25023 15.4306V45.4179L27.6249 57.7208V27.7334L25.3125 26.6123C25.209 26.5621 25.1163 26.4919 25.0399 26.4058C24.9634 26.3197 24.9045 26.2192 24.8667 26.1102C24.8288 26.0013 24.8127 25.8859 24.8193 25.7706C24.8258 25.6554 24.8549 25.5426 24.9049 25.4386C24.9548 25.3347 25.0247 25.2416 25.1105 25.1648C25.1962 25.0879 25.2962 25.0288 25.4047 24.9908C25.5133 24.9528 25.6282 24.9366 25.7429 24.9432C25.8577 24.9498 25.97 24.9791 26.0735 25.0293L28.5 26.2059L34.6668 23.2158C34.7703 23.1656 34.8826 23.1364 34.9973 23.1298C35.112 23.1233 35.227 23.1394 35.3355 23.1774C35.444 23.2154 35.544 23.2745 35.6297 23.3514C35.7155 23.4282 35.7854 23.5212 35.8353 23.6252C35.8853 23.7291 35.9144 23.8419 35.921 23.9571C35.9275 24.0724 35.9114 24.1878 35.8736 24.2968C35.8357 24.4057 35.7769 24.5062 35.7004 24.5923C35.6239 24.6785 35.5313 24.7486 35.4278 24.7988L29.3751 27.7334V57.7208Z" fill="#3E7CB1"/>
</svg>
